<svg width="38" height="38" viewBox="0 0 38 38" fill="none" xmlns="http://www.w3.org/2000/svg">
<path d="M30.0833 4.75H12.6667C10.0478 4.75 7.91667 6.88117 7.91667 9.5V11.0833H6.33333C5.91341 11.0833 5.51068 11.2501 5.21375 11.5471C4.91681 11.844 4.75 12.2467 4.75 12.6667C4.75 13.0866 4.91681 13.4893 5.21375 13.7863C5.51068 14.0832 5.91341 14.25 6.33333 14.25H7.91667V17.4167H6.33333C5.91341 17.4167 5.51068 17.5835 5.21375 17.8804C4.91681 18.1773 4.75 18.5801 4.75 19C4.75 19.4199 4.91681 19.8227 5.21375 20.1196C5.51068 20.4165 5.91341 20.5833 6.33333 20.5833H7.91667V23.75H6.33333C5.91341 23.75 5.51068 23.9168 5.21375 24.2137C4.91681 24.5107 4.75 24.9134 4.75 25.3333C4.75 25.7533 4.91681 26.156 5.21375 26.4529C5.51068 26.7499 5.91341 26.9167 6.33333 26.9167H7.91667V28.5C7.91667 31.1188 10.0478 33.25 12.6667 33.25H30.0833C32.7022 33.25 34.8333 31.1188 34.8333 28.5V9.5C34.8333 6.88117 32.7022 4.75 30.0833 4.75ZM11.0833 9.5C11.0833 8.62758 11.7943 7.91667 12.6667 7.91667V11.0833H11.0833V9.5ZM11.0833 14.25H12.6667V17.4167H11.0833V14.25ZM11.0833 20.5833H12.6667V23.75H11.0833V20.5833ZM11.0833 28.5V26.9167H12.6667V30.0833C11.7943 30.0833 11.0833 29.3724 11.0833 28.5ZM31.6667 28.5C31.6667 29.3724 30.9558 30.0833 30.0833 30.0833H14.25V7.91667H30.0833C30.9558 7.91667 31.6667 8.62758 31.6667 9.5V28.5Z" fill="white"/>
<path d="M22.1667 19.7917C23.9156 19.7917 25.3333 18.3739 25.3333 16.625C25.3333 14.8761 23.9156 13.4583 22.1667 13.4583C20.4178 13.4583 19 14.8761 19 16.625C19 18.3739 20.4178 19.7917 22.1667 19.7917Z" fill="white"/>
<path d="M22.1667 21.147C19.6935 21.147 18.2083 22.2791 18.2083 23.4096C18.2083 23.9748 19.6935 24.5417 22.1667 24.5417C24.4878 24.5417 26.125 23.9764 26.125 23.4096C26.125 22.2791 24.5733 21.147 22.1667 21.147Z" fill="white"/>
</svg>
