<svg width="402" height="103" viewBox="0 0 402 103" fill="none" xmlns="http://www.w3.org/2000/svg">
<path d="M3.2 30V24.8H9V6H3.2V0.799999H20.8V6H15V24.8H20.8V30H3.2ZM72.3288 30.4C70.1154 30.4 68.3554 29.8 67.0488 28.6C65.7688 27.4 65.1288 25.7733 65.1288 23.72C65.1288 21.5067 65.8888 19.8133 67.4088 18.64C68.9554 17.44 71.1688 16.84 74.0488 16.84H78.6088V15.2C78.6088 14.3467 78.3021 13.6667 77.6888 13.16C77.1021 12.6533 76.3021 12.4 75.2888 12.4C74.3554 12.4 73.5821 12.6133 72.9688 13.04C72.3554 13.4667 71.9821 14.0533 71.8488 14.8H66.0488C66.2888 12.5867 67.2488 10.84 68.9288 9.56C70.6354 8.25333 72.8221 7.6 75.4888 7.6C78.2888 7.6 80.5021 8.29333 82.1288 9.68C83.7821 11.04 84.6088 12.88 84.6088 15.2V30H78.8088V26.4H77.8488L78.8488 25C78.8488 26.6533 78.2488 27.9733 77.0488 28.96C75.8754 29.92 74.3021 30.4 72.3288 30.4ZM74.5688 26C75.7421 26 76.7021 25.6933 77.4488 25.08C78.2221 24.44 78.6088 23.6133 78.6088 22.6V20.24H74.1688C73.2621 20.24 72.5288 20.5067 71.9688 21.04C71.4088 21.5467 71.1288 22.2267 71.1288 23.08C71.1288 23.9867 71.4354 24.7067 72.0488 25.24C72.6621 25.7467 73.5021 26 74.5688 26ZM96.4331 30V8H101.153V11.2H102.113L101.353 11.76C101.353 10.5067 101.713 9.50667 102.433 8.76C103.153 7.98667 104.046 7.6 105.113 7.6C106.26 7.6 107.153 8.09333 107.793 9.08C108.433 10.0667 108.753 11.3733 108.753 13L108.033 11.2H109.153L108.793 11.76C108.793 10.5067 109.14 9.50667 109.833 8.76C110.526 7.98667 111.46 7.6 112.633 7.6C113.966 7.6 115.046 8.10667 115.873 9.12C116.7 10.1067 117.113 11.4667 117.113 13.2V30H111.953V13.6C111.953 12.9867 111.82 12.52 111.553 12.2C111.286 11.8533 110.9 11.68 110.393 11.68C109.886 11.68 109.5 11.8533 109.233 12.2C108.966 12.52 108.833 12.9867 108.833 13.6V30H104.713V13.6C104.713 12.9867 104.58 12.52 104.313 12.2C104.046 11.8533 103.66 11.68 103.153 11.68C102.646 11.68 102.26 11.8533 101.993 12.2C101.726 12.52 101.593 12.9867 101.593 13.6V30H96.4331ZM3.12 95L0.4 65.8H5.32L6.8 85.32C6.82667 85.6933 6.85333 86.2267 6.88 86.92C6.90667 87.5867 6.93333 88.2933 6.96 89.04C7.01333 89.76 7.04 90.4133 7.04 91C7.09333 90.4133 7.14667 89.76 7.2 89.04C7.28 88.2933 7.36 87.5867 7.44 86.92C7.52 86.2267 7.57333 85.6933 7.6 85.32L9.76 65.8H14.32L16.4 85.32C16.4533 85.6933 16.5067 86.2267 16.56 86.92C16.64 87.5867 16.72 88.2933 16.8 89.04C16.9067 89.76 16.9867 90.4133 17.04 91C17.0667 90.4133 17.0933 89.76 17.12 89.04C17.1467 88.2933 17.1733 87.5867 17.2 86.92C17.2267 86.2267 17.2533 85.6933 17.28 85.32L18.64 65.8H23.6L20.68 95H14.44L12.48 75.6C12.4267 75.1467 12.3733 74.56 12.32 73.84C12.2667 73.0933 12.2133 72.32 12.16 71.52C12.1067 70.72 12.0533 70.0133 12 69.4C11.9733 70.0133 11.9333 70.72 11.88 71.52C11.8267 72.32 11.7733 73.0933 11.72 73.84C11.6667 74.56 11.6133 75.1467 11.56 75.6L9.4 95H3.12ZM43.6244 95.4C41.6777 95.4 39.971 95.04 38.5044 94.32C37.0644 93.5733 35.9444 92.5467 35.1444 91.24C34.371 89.9067 33.9844 88.36 33.9844 86.6V81.4C33.9844 79.64 34.371 78.1067 35.1444 76.8C35.9444 75.4667 37.0644 74.44 38.5044 73.72C39.971 72.9733 41.6777 72.6 43.6244 72.6C45.571 72.6 47.251 72.9733 48.6644 73.72C50.1044 74.44 51.211 75.4667 51.9844 76.8C52.7844 78.1067 53.1844 79.64 53.1844 81.4V85.4H39.7044V86.6C39.7044 87.9867 40.0377 89.04 40.7044 89.76C41.371 90.4533 42.371 90.8 43.7044 90.8C44.6377 90.8 45.3844 90.64 45.9444 90.32C46.531 90 46.9177 89.56 47.1044 89H52.9844C52.5044 90.92 51.411 92.4667 49.7044 93.64C48.0244 94.8133 45.9977 95.4 43.6244 95.4ZM47.4644 82.32V81.32C47.4644 79.96 47.1444 78.92 46.5044 78.2C45.891 77.48 44.931 77.12 43.6244 77.12C42.3177 77.12 41.331 77.4933 40.6644 78.24C40.0244 78.9867 39.7044 80.04 39.7044 81.4V82L47.8644 81.92L47.4644 82.32ZM77.4488 95.4C75.6354 95.4 74.2088 94.88 73.1688 93.84C72.1288 92.7733 71.6088 91.2933 71.6088 89.4L73.0088 90.8H71.6088V95H65.8088V65.8H71.8088V71.8L71.6088 77.2H73.0088L71.6088 78.6C71.6088 76.7067 72.1288 75.24 73.1688 74.2C74.2088 73.1333 75.6354 72.6 77.4488 72.6C79.6621 72.6 81.4354 73.3867 82.7688 74.96C84.1021 76.5067 84.7688 78.5867 84.7688 81.2V86.8C84.7688 89.44 84.1021 91.5333 82.7688 93.08C81.4354 94.6267 79.6621 95.4 77.4488 95.4ZM75.2888 90.2C76.4088 90.2 77.2621 89.8933 77.8488 89.28C78.4621 88.64 78.7688 87.7467 78.7688 86.6V81.4C78.7688 80.2533 78.4621 79.3733 77.8488 78.76C77.2621 78.12 76.4088 77.8 75.2888 77.8C74.1954 77.8 73.3421 78.12 72.7288 78.76C72.1154 79.3733 71.8088 80.2533 71.8088 81.4V86.6C71.8088 87.7467 72.1154 88.64 72.7288 89.28C73.3421 89.8933 74.1954 90.2 75.2888 90.2ZM128.858 95V65.8H138.338C140.364 65.8 142.124 66.1867 143.618 66.96C145.138 67.7333 146.311 68.8267 147.138 70.24C147.991 71.6267 148.418 73.2667 148.418 75.16V85.6C148.418 87.4667 147.991 89.1067 147.138 90.52C146.311 91.9333 145.138 93.04 143.618 93.84C142.124 94.6133 140.364 95 138.338 95H128.858ZM134.858 89.4H138.338C139.564 89.4 140.551 89.0533 141.298 88.36C142.044 87.6667 142.418 86.7467 142.418 85.6V75.16C142.418 74.04 142.044 73.1333 141.298 72.44C140.551 71.7467 139.564 71.4 138.338 71.4H134.858V89.4ZM169.962 95.4C168.015 95.4 166.309 95.04 164.842 94.32C163.402 93.5733 162.282 92.5467 161.482 91.24C160.709 89.9067 160.322 88.36 160.322 86.6V81.4C160.322 79.64 160.709 78.1067 161.482 76.8C162.282 75.4667 163.402 74.44 164.842 73.72C166.309 72.9733 168.015 72.6 169.962 72.6C171.909 72.6 173.589 72.9733 175.002 73.72C176.442 74.44 177.549 75.4667 178.322 76.8C179.122 78.1067 179.522 79.64 179.522 81.4V85.4H166.042V86.6C166.042 87.9867 166.375 89.04 167.042 89.76C167.709 90.4533 168.709 90.8 170.042 90.8C170.975 90.8 171.722 90.64 172.282 90.32C172.869 90 173.255 89.56 173.442 89H179.322C178.842 90.92 177.749 92.4667 176.042 93.64C174.362 94.8133 172.335 95.4 169.962 95.4ZM173.802 82.32V81.32C173.802 79.96 173.482 78.92 172.842 78.2C172.229 77.48 171.269 77.12 169.962 77.12C168.655 77.12 167.669 77.4933 167.002 78.24C166.362 78.9867 166.042 80.04 166.042 81.4V82L174.202 81.92L173.802 82.32ZM197.786 95L190.586 73H196.786L200.466 85.36C200.68 86.1067 200.893 86.92 201.106 87.8C201.32 88.68 201.48 89.3867 201.586 89.92C201.72 89.3867 201.88 88.68 202.066 87.8C202.28 86.92 202.48 86.12 202.666 85.4L206.306 73H212.426L205.306 95H197.786ZM233.131 95.4C231.184 95.4 229.477 95.04 228.011 94.32C226.571 93.5733 225.451 92.5467 224.651 91.24C223.877 89.9067 223.491 88.36 223.491 86.6V81.4C223.491 79.64 223.877 78.1067 224.651 76.8C225.451 75.4667 226.571 74.44 228.011 73.72C229.477 72.9733 231.184 72.6 233.131 72.6C235.077 72.6 236.757 72.9733 238.171 73.72C239.611 74.44 240.717 75.4667 241.491 76.8C242.291 78.1067 242.691 79.64 242.691 81.4V85.4H229.211V86.6C229.211 87.9867 229.544 89.04 230.211 89.76C230.877 90.4533 231.877 90.8 233.211 90.8C234.144 90.8 234.891 90.64 235.451 90.32C236.037 90 236.424 89.56 236.611 89H242.491C242.011 90.92 240.917 92.4667 239.211 93.64C237.531 94.8133 235.504 95.4 233.131 95.4ZM236.971 82.32V81.32C236.971 79.96 236.651 78.92 236.011 78.2C235.397 77.48 234.437 77.12 233.131 77.12C231.824 77.12 230.837 77.4933 230.171 78.24C229.531 78.9867 229.211 80.04 229.211 81.4V82L237.371 81.92L236.971 82.32ZM268.275 95C266.728 95 265.368 94.68 264.195 94.04C263.022 93.3733 262.102 92.4533 261.435 91.28C260.795 90.1067 260.475 88.7467 260.475 87.2V71.2H253.675V65.8H266.475V87.2C266.475 87.92 266.688 88.5067 267.115 88.96C267.568 89.3867 268.155 89.6 268.875 89.6H275.275V95H268.275ZM296.259 95.4C294.313 95.4 292.619 95.04 291.179 94.32C289.739 93.5733 288.619 92.5467 287.819 91.24C287.046 89.9067 286.659 88.36 286.659 86.6V81.4C286.659 79.64 287.046 78.1067 287.819 76.8C288.619 75.4667 289.739 74.44 291.179 73.72C292.619 72.9733 294.313 72.6 296.259 72.6C298.233 72.6 299.926 72.9733 301.339 73.72C302.779 74.44 303.886 75.4667 304.659 76.8C305.459 78.1067 305.859 79.64 305.859 81.4V86.6C305.859 88.36 305.459 89.9067 304.659 91.24C303.886 92.5467 302.779 93.5733 301.339 94.32C299.926 95.04 298.233 95.4 296.259 95.4ZM296.259 90.2C297.433 90.2 298.326 89.8933 298.939 89.28C299.553 88.64 299.859 87.7467 299.859 86.6V81.4C299.859 80.2267 299.553 79.3333 298.939 78.72C298.326 78.1067 297.433 77.8 296.259 77.8C295.113 77.8 294.219 78.1067 293.579 78.72C292.966 79.3333 292.659 80.2267 292.659 81.4V86.6C292.659 87.7467 292.966 88.64 293.579 89.28C294.219 89.8933 295.113 90.2 296.259 90.2ZM318.484 102.2V73H324.284V77.2H325.684L324.284 78.6C324.284 76.7067 324.804 75.24 325.844 74.2C326.884 73.1333 328.31 72.6 330.124 72.6C332.337 72.6 334.11 73.3867 335.444 74.96C336.777 76.5067 337.444 78.5867 337.444 81.2V86.8C337.444 88.5333 337.137 90.0533 336.524 91.36C335.937 92.64 335.097 93.64 334.004 94.36C332.91 95.0533 331.617 95.4 330.124 95.4C328.31 95.4 326.884 94.88 325.844 93.84C324.804 92.7733 324.284 91.2933 324.284 89.4L325.684 90.8H324.284L324.484 96.2V102.2H318.484ZM327.964 90.2C329.084 90.2 329.937 89.8933 330.524 89.28C331.137 88.64 331.444 87.7467 331.444 86.6V81.4C331.444 80.2267 331.137 79.3333 330.524 78.72C329.937 78.1067 329.084 77.8 327.964 77.8C326.87 77.8 326.017 78.12 325.404 78.76C324.79 79.3733 324.484 80.2533 324.484 81.4V86.6C324.484 87.7467 324.79 88.64 325.404 89.28C326.017 89.8933 326.87 90.2 327.964 90.2ZM359.468 95.4C357.521 95.4 355.815 95.04 354.348 94.32C352.908 93.5733 351.788 92.5467 350.988 91.24C350.215 89.9067 349.828 88.36 349.828 86.6V81.4C349.828 79.64 350.215 78.1067 350.988 76.8C351.788 75.4667 352.908 74.44 354.348 73.72C355.815 72.9733 357.521 72.6 359.468 72.6C361.415 72.6 363.095 72.9733 364.508 73.72C365.948 74.44 367.055 75.4667 367.828 76.8C368.628 78.1067 369.028 79.64 369.028 81.4V85.4H355.548V86.6C355.548 87.9867 355.881 89.04 356.548 89.76C357.215 90.4533 358.215 90.8 359.548 90.8C360.481 90.8 361.228 90.64 361.788 90.32C362.375 90 362.761 89.56 362.948 89H368.828C368.348 90.92 367.255 92.4667 365.548 93.64C363.868 94.8133 361.841 95.4 359.468 95.4ZM363.308 82.32V81.32C363.308 79.96 362.988 78.92 362.348 78.2C361.735 77.48 360.775 77.12 359.468 77.12C358.161 77.12 357.175 77.4933 356.508 78.24C355.868 78.9867 355.548 80.04 355.548 81.4V82L363.708 81.92L363.308 82.32ZM382.293 95V73H387.893V77.2H389.413L387.693 79.76C387.693 77.3867 388.239 75.6 389.333 74.4C390.426 73.2 392.026 72.6 394.133 72.6C396.559 72.6 398.439 73.3333 399.773 74.8C401.133 76.2667 401.813 78.3333 401.813 81V82.8H395.413V81.4C395.413 80.2 395.079 79.2667 394.413 78.6C393.773 77.9333 392.906 77.6 391.813 77.6C390.666 77.6 389.786 77.9333 389.173 78.6C388.586 79.2667 388.293 80.2 388.293 81.4V95H382.293Z" fill="url(#paint0_radial_6_693)"/>
<defs>
<radialGradient id="paint0_radial_6_693" cx="0" cy="0" r="1" gradientUnits="userSpaceOnUse" gradientTransform="translate(275.788 7.03115) rotate(159.336) scale(323.811 312.628)">
<stop stop-color="#FFD500"/>
<stop offset="1" stop-color="#0085FF"/>
</radialGradient>
</defs>
</svg>
