<svg width="445" height="853" viewBox="0 0 445 853" fill="none" xmlns="http://www.w3.org/2000/svg">
<g clip-path="url(#clip0_7_1633)">
<path d="M23.4325 956.658C18.3536 943.864 14.7821 930.758 9.50713 918.379C5.5896 909.186 -2.04328 902.28 -10.7673 897.245C-16.1153 894.158 -23.8986 896.916 -26.9109 902.93C-29.5765 908.251 -33.7608 910.76 -39.1812 911.58C-53.7609 913.786 -67.533 918.033 -80.2163 925.851C-86.5454 929.753 -90.6071 927.666 -91.8605 920.207C-96.2878 893.859 -100.586 867.488 -104.723 841.094C-106.503 829.743 -103.508 818.928 -99.6337 808.153C-93.2529 846.309 -88.2969 884.571 -87.2836 923.749C-80.289 923.248 -75.3423 919.262 -70.406 915.526C-44.44 895.874 -18.8244 875.745 7.48498 856.568C18.575 848.484 30.8795 841.906 44.1548 837.747C49.8064 835.977 55.5144 835.462 59.1985 841.597C58.2371 844.042 56.368 843.79 54.8428 843.521C44.3989 841.679 38.2392 847.427 33.4326 855.519C28.6796 863.521 28.3014 871.102 35.8086 877.878C37.2285 879.16 38.4406 880.73 39.5208 882.322C46.1521 892.095 54.6265 894.982 66.4615 892.259C76.6042 889.926 87.3846 890.914 97.816 891.943C116.073 893.744 129.771 878.047 129.196 859.575C129.012 853.659 117.402 844.748 111.459 844.446C96.2033 843.669 87.0886 852.637 79.3954 863.987C77.5891 866.652 76.4058 869.745 72.8112 871.882C76.3383 855.426 87.5296 846.085 100.14 837.9C112.034 830.18 112.182 830.037 122.752 839.285C151.455 864.401 182.33 886.719 212.702 909.689C219.72 914.997 226.434 920.606 231.535 927.706C230.449 929.537 229.141 928.935 228.655 928.185C222.211 918.234 210.299 919.361 201.328 914.572C199.738 913.723 198.153 914.65 196.535 914.9C188.224 916.181 180.073 916.089 172.488 911.623C169.112 909.635 165.374 908.591 161.427 908.552C147.504 908.415 146.861 909.562 144.45 920.979C142.007 932.552 138.508 943.901 135.376 956.003C98.2571 956.658 61.2329 956.658 23.4325 956.658ZM59.2638 952.07C63.6882 956.171 66.4665 951.762 69.0524 949.665C80.8014 940.14 92.3149 930.319 103.799 920.471C108.458 916.476 111.948 911.72 111.207 904.4C91.7163 914.403 75.5597 928.373 59.7157 942.74C57.1795 945.039 55.3409 947.951 59.2638 952.07ZM43.4781 920.902C45.5955 926.093 48.7445 930.155 54.5612 925.953C63.4638 919.523 71.9201 912.468 80.4845 905.577C82.1223 904.259 84.0636 902.719 81.8077 898.789C66.485 900.617 54.9542 910.047 43.4781 920.902Z" fill="black"/>
<path d="M446.656 843.162C420.612 840.493 394.68 836.339 369.027 830.691C355.325 827.674 353.671 824.518 357.5 810.97C358.909 805.982 357.732 802.413 353.919 799.287C351.4 797.222 348.758 795.177 348.011 789.053C381.416 801.954 413.514 814.351 446.135 827.041C446.656 832.36 446.656 837.384 446.656 843.162Z" fill="black"/>
<path d="M-116.771 283.338C-115.248 270.626 -109.599 258.831 -113.768 246.178C-114.289 244.598 -114.453 242.937 -116.103 241.779C-120.754 240.923 -124.482 245.292 -131.536 244.521C-117.324 233.387 -109.086 219.795 -102.704 204.764C-106.419 202.916 -109.353 205.993 -113.919 205.139C-104.983 194.212 -96.4668 183.799 -87.1395 172.395C-93.4988 173.339 -96.907 177.992 -103.562 179.709C-94.1327 162.279 -74.3239 155.553 -67.1278 137.883C-73.0058 135.365 -76.704 140.355 -81.9864 139.888C-81.0773 133.623 -75.5591 132.021 -71.5212 129.759C-56.7923 121.51 -42.7565 112.281 -29.4442 101.922C-28.5848 101.253 -27.8353 100.443 -27.2603 99.9082C-25.8268 96.2242 -30.9542 95.7158 -29.9789 91.4995C-12.7178 92.2099 0.506455 81.9318 14.512 73.3618C19.9618 70.0271 23.2374 66.5358 20.8642 59.3713C19.671 55.7693 19.6016 51.3373 21.5111 45.94C33.7532 60.6686 49.9427 65.3456 66.9233 68.2878C68.5477 68.5692 70.1753 68.903 71.8148 69.015C87.2311 70.0682 87.3665 69.945 86.7949 55.0318C86.593 49.764 87.2714 44.6695 89.6449 38.7542C99.4717 52.5923 114.087 58.6702 127.349 66.2466C130.352 65.3005 127.28 62.9681 129.558 61.7081C129.76 61.7081 130.678 61.4373 131.31 61.7477C146.902 69.3975 162.542 76.9558 178 84.8697C186.563 89.2536 191.214 97.1095 194.749 105.736C195.953 108.674 196.092 112.275 200.015 114.406C206.298 104.208 199.287 94.2629 199.103 82.3977C208.389 91.0327 209.618 100.148 208.23 109.936C206.651 121.077 206.962 121.521 217.894 119.532C229.858 117.354 242.427 122.47 251.85 133.937C241.937 131.781 234.116 122.569 223.554 128.068C223.46 132.776 227.477 133.984 229.97 136.183C238.848 144.012 245.372 152.525 250.09 164.222C257.42 182.393 267.794 200.135 288.858 206.831C292.597 208.019 291.013 211.367 292.162 213.73C287.743 217.55 281.627 214.418 277.243 217.686C278.05 226.539 279.83 235.363 281.052 243.964C282.103 251.352 285.315 260.968 282.436 267.349C274.59 284.738 279.107 302.757 276.741 320.301C274.314 338.295 273.119 356.471 271.846 374.599C271.349 381.669 267.313 387.52 265.868 395.82C270.614 392.195 274.212 389.075 278.169 386.508C284.849 382.176 289.632 384.381 291.414 392.121C293.524 401.284 291.149 409.739 288.098 418.119C269.342 415.456 270.388 414.906 273.566 402.121C268.65 406.074 262.438 408.396 260.828 416.059C259.487 422.446 256.863 428.562 254.574 435.508C251.927 433.265 252.585 431.102 252.89 429.161C257.156 402.048 257.425 374.775 255.518 347.498C254.764 336.704 250.969 326.442 245.855 316.896C239.688 305.386 237.421 293.193 237.376 280.253C237.326 266.052 235.482 252.154 226.782 240.151C225.468 238.339 224.387 236.441 225.684 234.053C228.528 228.813 225.338 224.492 221.395 223.486C216.183 222.156 217.829 228.323 216.272 231.105C216.022 231.553 215.527 231.865 215.09 232.294C212.095 232.111 212.614 229.611 212.872 228.022C214.819 216.064 209.063 206.465 203.103 197.193C199.897 192.208 196.892 185.886 188.626 187.313C187.122 187.573 185.182 184.843 183.336 183.661C172.39 176.652 160.735 173.274 147.658 176.576C144.145 165.433 140.901 164.521 127.785 171.838C127.396 165.425 123.226 165.187 119.315 167.654C111.805 172.39 102.711 168.85 95.0805 173.162C92.1323 174.828 88.4785 173.502 85.4598 170.571C79.6594 164.941 72.0956 163.17 64.1967 162.792C63.1004 162.739 61.3363 162.4 60.9969 162.921C56.3001 170.134 49.8814 166.122 45.1159 164.331C36.9599 161.267 30.8777 168.822 22.9638 166.923C18.902 165.948 22.5115 171.516 19.2915 174.537C15.6301 174.537 10.7071 174.407 5.79396 174.573C0.902724 174.739 -4.28001 174.273 -7.41282 179.498C-7.8769 180.272 -9.3038 180.807 -10.3173 180.862C-32.6121 182.073 -41.1185 202.103 -55.5373 214.037C-57.0626 215.299 -58.0627 217.008 -56.6433 219.13C-55.3284 221.095 -56.0675 223.216 -57.4067 224.465C-63.5652 230.209 -64.811 238.318 -68.3007 245.358C-71.5161 251.844 -71.8051 258.018 -70.8608 264.568C-68.6859 279.653 -69.8991 294.046 -76.2591 308.234C-89.7311 338.288 -91.7169 369.998 -88.143 402.307C-87.2703 410.197 -87.483 416.912 -89.133 422.257C-92.791 419.164 -92.6352 414.742 -93.6024 411.044C-94.9464 405.907 -96.1899 400.939 -100.193 397.085C-102.044 395.303 -102.263 392.933 -102.495 390.31C-105.431 357.093 -108.76 323.91 -111.501 290.678C-111.849 286.463 -114.416 285.704 -116.771 283.338Z" fill="black"/>
<path d="M-96.9941 724.207C-86.2222 707.728 -77.2093 690.977 -69.718 673.425C-67.0517 667.177 -63.6663 661.684 -57.4524 658.355C-54.7013 656.881 -52.6075 654.913 -52.4547 651.34C-51.3 624.333 -48.9445 597.375 -49.1865 570.312C-49.2011 568.686 -49.1688 566.759 -49.9722 565.486C-58.3521 552.216 -61.3022 536.834 -66.9084 522.493C-67.2852 521.529 -68.0533 520.718 -69.1902 519.007C-81.8068 526.761 -88.4371 518.044 -94.9477 509.327C-103.204 498.274 -111.153 486.979 -120.648 476.917C-125.262 472.028 -126.966 466.321 -127.065 459.585C-127.324 441.948 -125.577 424.256 -128.448 406.674C-129.355 401.119 -128.037 395.676 -126.406 390.378C-125.21 386.493 -122.995 383.686 -117.826 383.507C-125.63 407.985 -122.204 432.517 -122.765 456.805C-123.024 468.017 -114.234 474.686 -108.26 481.975C-102.339 489.2 -96.4899 496.383 -91.3987 504.205C-89.5571 507.035 -87.1213 509.17 -84.3679 511.1C-81.0718 513.41 -78.1673 513.624 -74.4623 511.607C-70.4447 509.421 -70.0535 506.281 -70.5714 502.561C-71.6087 495.112 -74.2148 487.888 -72.9715 479.987C-69.8178 491.255 -66.2437 502.427 -63.6158 513.817C-60.2541 528.387 -53.6058 541.755 -48.9392 555.842C-47.3167 560.74 -42.78 564.992 -38.8204 568.741C-12.1566 593.986 15.8962 617.586 46.2751 638.258C57.917 646.18 59.8295 650.082 54.0366 662.876C50.9486 669.695 49.0117 676.137 51.6343 683.54C53.609 689.113 49.7386 692.565 45.8033 695.136C38.7127 699.767 37.692 706.19 38.5279 713.878C39.4883 722.711 40.4941 731.266 45.9937 738.85C47.9502 741.548 48.6007 745.642 48.7312 749.14C49.2089 761.943 56.9981 769.844 66.5733 776.417C72.9209 780.773 79.3503 785.596 86.4833 788.081C96.7334 791.653 107.755 791.059 117.509 785.947C124.22 782.429 130.67 779.895 138.273 780.077C139.55 787.009 128.01 787.311 132.106 795.32C140.771 790.429 147.398 782.24 157.858 781.716C158.863 785.063 156.459 786.097 154.89 787.359C132.552 805.335 110.84 824.05 89.0316 842.66C82.086 848.587 76.7074 855.153 73.125 863.396C69.1776 872.479 64.3287 881.003 57.2173 889.487C56.2446 884.805 58.4967 882.334 60.01 879.634C66.0756 868.809 71.9503 857.872 78.2489 847.185C81.2965 842.014 77.6042 840.14 74.5114 838.032C57.1545 826.201 40.5256 813.491 25.771 798.454C9.73376 782.111 -7.31096 766.72 -22.1331 749.23C-38.0785 730.414 -52.133 710.398 -57.4461 685.588C-58.0157 682.928 -58.607 680.13 -61.5963 678.975C-64.617 678.89 -65.1567 681.325 -65.9842 683.268C-72.3925 698.311 -80.0572 712.408 -91.504 724.488C-98.6189 731.996 -102.628 741.588 -101.01 754.523C-104.391 750.48 -103.311 746.471 -106.702 744.484C-112.902 746.202 -118.217 751.51 -127.31 751.463C-116.259 742.209 -101.652 738.903 -96.9941 724.207ZM-33.3155 643.358C-33.2824 657.519 -32.7581 671.773 -23.8557 683.599C-18.7103 690.434 -13.0488 696.796 -9.53437 704.724C-6.72689 711.056 -1.81435 714.497 5.03302 712.364C11.8336 710.245 11.5267 703.95 10.7342 698.477C9.15641 687.579 7.04455 676.756 5.04318 665.923C4.59811 663.514 4.22052 660.82 1.98346 659.324C-5.82987 654.1 -9.92892 645.724 -15.668 638.747C-18.6846 635.08 -21.813 630.657 -26.8659 631.384C-32.2063 632.152 -31.8767 637.89 -33.3155 643.358Z" fill="black"/>
<path d="M236.312 497.396C236.487 499.874 236.323 502.436 236.907 504.813C238.258 510.31 242.888 512.266 247.442 509.122C251.048 506.634 254.985 504.069 257.463 500.599C268.593 485.008 282.382 471.057 288.228 452.1C288.538 451.095 289.58 449.816 289.259 449.19C283.785 438.499 292.628 429.213 290.975 417.441C296.423 422.007 294.763 426.979 295.758 430.935C300.414 449.453 298.428 465.994 282.679 479.666C273.593 487.552 266.43 497.667 258.463 506.832C252.259 513.969 246.019 520.819 235.315 514.182C232.132 519.097 231.516 524.039 230.236 528.741C228.426 535.388 228.077 543.045 224.413 548.439C217.899 558.03 218.703 568.185 218.508 578.554C218.042 603.399 217.671 628.248 216.919 653.085C216.706 660.128 218.709 665.393 224.792 669.151C233.915 674.786 239.019 683.068 242.106 693.399C247.915 712.844 258.516 730.256 268.754 747.484C273.581 755.607 284.392 759.217 293.333 763.477C297.562 765.492 301.835 767.289 305.599 771.839C299.78 772.541 295.787 769.811 291.54 767.96C283.59 764.494 277.06 757.662 267.465 757.947C266.226 757.984 264.517 756.37 263.725 755.088C253.976 739.306 241.756 724.962 235.828 706.942C234.406 702.619 234.555 698.241 234.38 693.838C234.232 690.095 234.63 686.119 230.391 682.992C223.371 710.679 214.059 736.429 189.057 754.481C184.451 742.869 182.106 734.023 186.297 721.97C196.699 692.053 205.747 661.504 206.648 629.249C206.964 617.907 207.52 606.632 205.608 595.435C203.959 585.77 199.208 583.822 191.452 589.955C181.108 598.134 170.519 606.243 161.959 616.283C154.892 624.572 146.504 629.029 135.222 630.417C137.024 625.386 141.213 623.127 144.567 620.439C162.225 606.283 179.421 591.615 196.017 576.218C204.414 568.427 208.91 558.876 212.056 548.004C215.095 537.503 218.365 526.797 225.858 518.234C230.918 512.452 232.028 504.78 235.9 497.816C236.312 497.396 236.312 497.396 236.312 497.396Z" fill="black"/>
<path d="M202.098 319.547C186.957 316.723 172.355 317.321 157.78 317.102C151.083 317.002 144.978 317.071 142.933 325.244C142.597 326.589 141.182 327.298 138.564 327.347C136.203 319.241 129.128 317.91 121.478 317.133C117.627 316.742 113.275 314.996 113.681 310.381C114.099 305.64 117.049 303.225 122.578 301.508C134.413 297.833 146.255 297.232 158.207 297.994C177.663 299.234 197.199 300.713 215.869 306.942C228.391 311.119 239.077 317.743 243.693 333.314C229.63 326.823 216.726 321.58 202.098 319.547Z" fill="black"/>
<path d="M-3.01685 295.67C11.3086 293.076 24.6589 296.003 38.019 297.481C43.8892 298.13 51.0946 299.485 51.3036 307.239C51.487 314.041 45.6088 316.244 35.1435 315.128C10.0383 312.451 -14.9245 313.503 -39.6031 318.999C-49.6043 321.226 -59.0869 324.985 -67.9275 330.259C-69.521 331.21 -71.0648 332.567 -74.3483 331.106C-66.1997 316.652 -54.728 306.652 -39.5349 301.329C-28.059 297.308 -15.9892 295.747 -3.01685 295.67Z" fill="black"/>
<path d="M130.595 356.776C133.926 353.329 131.659 350.259 130.563 346.746C138.783 342.164 146.295 339.163 156.321 342.226C168.603 345.978 181.581 347.531 194.318 349.679C201.138 350.829 206.451 354.27 211.662 358.512C218.187 363.822 225.133 368.614 231.985 373.694C213.381 381.392 195.243 389.746 176.93 374.171C177.545 370.642 182.336 370.779 183.81 366.18C176.158 358.008 166.514 363.926 158.1 362.496C156.846 366.943 161.246 368.007 161.7 371.643C155.122 371.628 152.755 367.315 150.934 362.726C147.68 354.522 146.065 353.934 138.06 358.261C134.954 359.939 132.784 363.15 128.985 363.849C126.859 361.031 129.36 359.29 130.595 356.776ZM202.313 366.436C198.534 363.959 195.042 360.777 189.555 360.977C189.334 365.893 185.872 369.676 186.318 374.387C196.821 379.361 205.228 378.775 210.079 372.868C208.613 370.004 205.415 369.177 202.313 366.436Z" fill="black"/>
<path d="M-21.903 347.692C-11.3603 344.687 -1.19459 344.503 8.98118 343.895C13.2948 343.637 18.2425 344.54 22.0602 340.555C23.6453 338.901 27.6293 340.429 27.9244 341.756C29.4724 348.715 36.8666 352.558 37.7239 360.514C29.998 359.436 24.4877 352.483 16.0225 354.202C15.7724 359.191 17.7684 364.615 13.7986 368.48C11.4589 370.758 8.25841 371.847 4.77414 370.932C3.73832 366.932 10.0535 366.544 8.30782 361.845C-0.315339 364.468 -12.6842 350.343 -17.2299 368.489C-22.5177 367.442 -20.7987 360.099 -26.4107 360.401C-29.2909 360.556 -38.9602 366.754 -43.8114 371.843C-36.1498 377.588 -27.5121 377.318 -18.6852 376.669C-25.3041 382.078 -49.9794 379.692 -63.8579 372.149C-58.2189 369.106 -55.4141 364.28 -52.2028 359.136C-47.8226 352.119 -39.1526 349.39 -30.639 349.041C-27.8275 348.926 -25.2288 348.399 -21.903 347.692Z" fill="black"/>
<path d="M59.0401 512.257C62.6837 517.403 68.4569 516.324 73.4118 516.639C83.0343 517.25 92.8368 518.045 102.335 516.882C116.168 515.187 128.531 522.238 141.981 521.99C144.564 521.942 145.731 523.938 145.37 527.722C124.909 530.084 105.252 522.064 84.7114 522.164C64.2529 522.264 44.0423 526.7 23.3083 524.439C34.2072 518.132 47.8683 520.511 58.5146 512.445C59.0774 512.303 59.0401 512.257 59.0401 512.257Z" fill="black"/>
<path d="M256.281 817.053C258.622 810.443 258.368 803.706 262.281 796.533C262.117 809.424 266.378 820.82 261.016 831.875C259.552 834.895 259.084 839.005 252.916 839.102C253.986 831.752 255.013 824.697 256.281 817.053Z" fill="black"/>
<path d="M112.261 463.34C113.424 466.552 114.328 469.422 111.371 471.309C108.659 473.04 106.21 471.681 103.793 469.976C101.128 468.095 98.1886 466.604 95.0443 464.752C95.5543 460.157 98.9158 458.865 102.818 457.886C107.51 456.71 110.036 459.17 112.261 463.34Z" fill="black"/>
<path d="M67.9837 455.996C78.2959 456.328 79.8382 463.423 80.6773 471.579C75.1414 466.801 68.9157 463.803 62.086 463.288C61.4811 458.092 64.7789 457.429 67.9837 455.996Z" fill="black"/>
<path d="M249.408 857.596C250.157 854.648 250.819 852.326 251.481 850.003C251.493 861.323 252.129 872.707 245.141 884.914C244.515 874.179 247.182 866.24 249.408 857.596Z" fill="black"/>
<path d="M59.0924 512.327C62.2174 510.154 64.8508 506.323 69.9896 509.195C68.1617 515.455 63.9817 513.357 59.6435 512.398C59.04 512.257 59.0773 512.303 59.0924 512.327Z" fill="black"/>
<path d="M236.314 497.397C236.354 489.66 238.28 482.412 242.033 475.63C242.04 482.973 239.993 489.836 236.725 496.954C236.312 497.396 236.314 497.397 236.314 497.397Z" fill="black"/>
</g>
<defs>
<clipPath id="clip0_7_1633">
<rect width="742" height="955" fill="white" transform="translate(-297)"/>
</clipPath>
</defs>
</svg>
