<svg width="747" height="95" viewBox="0 0 747 95" fill="none" xmlns="http://www.w3.org/2000/svg">
<path d="M3.9 69H0.9V72H3.9V69ZM3.9 25.2V22.2H0.9V25.2H3.9ZM26.1 26.82L24.8157 29.5312L24.8157 29.5312L26.1 26.82ZM31.38 31.44L28.8303 33.0208L28.8416 33.0391L28.8532 33.0572L31.38 31.44ZM31.2 46.14L28.656 44.55L28.6457 44.5665L28.6356 44.5831L31.2 46.14ZM25.62 51L24.4496 48.2377L21.6022 49.4443L22.8945 52.2537L25.62 51ZM33.9 69V72H38.5822L36.6255 67.7463L33.9 69ZM24.12 69L21.3615 70.1793L22.1399 72H24.12V69ZM17.04 52.44L19.7985 51.2607L19.0201 49.44H17.04V52.44ZM12.84 52.44V49.44H9.84V52.44H12.84ZM12.84 69V72H15.84V69H12.84ZM12.84 44.64H9.84V47.64H12.84V44.64ZM22.62 43.14L20.622 40.9022L20.6017 40.9203L20.5818 40.9387L22.62 43.14ZM22.62 34.56L20.5391 36.721L20.5587 36.7399L20.5786 36.7584L22.62 34.56ZM12.84 33V30H9.84V33H12.84ZM6.9 69V25.2H0.9V69H6.9ZM3.9 28.2H18V22.2H3.9V28.2ZM18 28.2C20.7785 28.2 23.0207 28.6809 24.8157 29.5312L27.3843 24.1088C24.6194 22.7991 21.4615 22.2 18 22.2V28.2ZM24.8157 29.5312C26.6133 30.3827 27.9167 31.5473 28.8303 33.0208L33.9297 29.8592C32.3633 27.3327 30.1467 25.4173 27.3843 24.1088L24.8157 29.5312ZM28.8532 33.0572C29.7811 34.5071 30.3 36.2877 30.3 38.52H36.3C36.3 35.3123 35.5389 32.3729 33.9068 29.8228L28.8532 33.0572ZM30.3 38.52C30.3 40.8417 29.7355 42.8228 28.656 44.55L33.744 47.73C35.4645 44.9772 36.3 41.8783 36.3 38.52H30.3ZM28.6356 44.5831C27.5945 46.2979 26.2162 47.4892 24.4496 48.2377L26.7904 53.7623C29.7438 52.5108 32.0855 50.4621 33.7644 47.6969L28.6356 44.5831ZM22.8945 52.2537L31.1745 70.2537L36.6255 67.7463L28.3455 49.7463L22.8945 52.2537ZM33.9 66H24.12V72H33.9V66ZM26.8785 67.8207L19.7985 51.2607L14.2815 53.6193L21.3615 70.1793L26.8785 67.8207ZM17.04 49.44H12.84V55.44H17.04V49.44ZM9.84 52.44V69H15.84V52.44H9.84ZM12.84 66H3.9V72H12.84V66ZM12.84 47.64H18V41.64H12.84V47.64ZM18 47.64C20.4807 47.64 22.8504 47.0152 24.6582 45.3413L20.5818 40.9387C20.2296 41.2648 19.5193 41.64 18 41.64V47.64ZM24.618 45.3778C26.5018 43.6959 27.3 41.4093 27.3 38.94H21.3C21.3 40.0707 20.9782 40.5841 20.622 40.9022L24.618 45.3778ZM27.3 38.94C27.3 36.432 26.5289 34.0958 24.6614 32.3616L20.5786 36.7584C20.9511 37.1042 21.3 37.688 21.3 38.94H27.3ZM24.7009 32.399C22.8958 30.6608 20.5099 30 18 30V36C19.4901 36 20.1842 36.3792 20.5391 36.721L24.7009 32.399ZM18 30H12.84V36H18V30ZM9.84 33V44.64H15.84V33H9.84ZM48.8766 69L45.9629 68.2855L45.0521 72H48.8766V69ZM59.6166 25.2V22.2H57.2633L56.7029 24.4855L59.6166 25.2ZM71.0166 25.2L73.9284 24.478L73.3636 22.2H71.0166V25.2ZM81.8766 69V72H85.7112L84.7884 68.278L81.8766 69ZM72.6966 69L69.7619 69.6225L70.2662 72H72.6966V69ZM70.5966 59.1L73.5313 58.4775L73.027 56.1H70.5966V59.1ZM60.1566 59.1V56.1H57.7262L57.2219 58.4775L60.1566 59.1ZM58.0566 69V72H60.487L60.9913 69.6225L58.0566 69ZM61.6566 51.9L58.72 51.2861L57.9646 54.9H61.6566V51.9ZM69.0366 51.9V54.9H72.6919L71.9789 51.3149L69.0366 51.9ZM66.9366 41.34L63.9862 41.8835L63.99 41.9043L63.9942 41.9251L66.9366 41.34ZM66.0366 36.84L63.0862 37.3835L63.0946 37.4289L63.1043 37.474L66.0366 36.84ZM65.3766 33.3L68.3236 32.7387H62.4295L65.3766 33.3ZM64.7166 36.78L61.7689 36.2223L61.7615 36.261L61.7552 36.2998L64.7166 36.78ZM63.8766 41.28L60.9409 40.662L60.94 40.6661L63.8766 41.28ZM51.7902 69.7145L62.5302 25.9145L56.7029 24.4855L45.9629 68.2855L51.7902 69.7145ZM59.6166 28.2H71.0166V22.2H59.6166V28.2ZM68.1047 25.922L78.9647 69.722L84.7884 68.278L73.9284 24.478L68.1047 25.922ZM81.8766 66H72.6966V72H81.8766V66ZM75.6313 68.3775L73.5313 58.4775L67.6619 59.7225L69.7619 69.6225L75.6313 68.3775ZM70.5966 56.1H60.1566V62.1H70.5966V56.1ZM57.2219 58.4775L55.1219 68.3775L60.9913 69.6225L63.0913 59.7225L57.2219 58.4775ZM58.0566 66H48.8766V72H58.0566V66ZM61.6566 54.9H69.0366V48.9H61.6566V54.9ZM71.9789 51.3149L69.8789 40.7549L63.9942 41.9251L66.0942 52.4851L71.9789 51.3149ZM69.8869 40.7965C69.6015 39.2469 69.2954 37.7167 68.9688 36.206L63.1043 37.474C63.4177 38.9233 63.7117 40.3931 63.9862 41.8835L69.8869 40.7965ZM68.9869 36.2965C68.7065 34.7745 68.4853 33.5875 68.3236 32.7387L62.4295 33.8613C62.5879 34.6925 62.8066 35.8655 63.0862 37.3835L68.9869 36.2965ZM62.4295 32.7387C62.2692 33.5805 62.0489 34.7419 61.7689 36.2223L67.6643 37.3377C67.9442 35.8581 68.1639 34.6995 68.3236 33.8613L62.4295 32.7387ZM61.7552 36.2998C61.523 37.732 61.2516 39.1861 60.9409 40.662L66.8122 41.898C67.1415 40.3339 67.4301 38.788 67.6779 37.2602L61.7552 36.2998ZM60.94 40.6661L58.72 51.2861L64.5931 52.5138L66.8131 41.8938L60.94 40.6661ZM98.7131 69H95.7131V72H98.7131V69ZM98.7131 25.2V22.2H95.7131V25.2H98.7131ZM123.433 28.26L121.599 30.6339L121.61 30.6426L121.622 30.6513L123.433 28.26ZM126.013 41.46L123.485 39.8448L123.469 39.8701L123.453 39.8956L126.013 41.46ZM122.413 44.82L121.016 42.1652L121.001 42.173L120.987 42.1809L122.413 44.82ZM117.553 46.02V43.02H114.553V46.02H117.553ZM117.553 46.2H114.553V49.2618L117.614 49.1994L117.553 46.2ZM122.893 47.28L121.606 49.9898L121.619 49.9959L121.632 50.0019L122.893 47.28ZM126.853 50.7L124.347 52.3488L124.347 52.3488L126.853 50.7ZM126.493 63.06L123.973 61.4324L123.969 61.4391L123.964 61.4459L126.493 63.06ZM107.413 61.74H104.413V64.74H107.413V61.74ZM117.613 60.18L119.654 62.3784L119.654 62.3784L117.613 60.18ZM117.613 51.54L115.531 53.6995L115.551 53.7191L115.572 53.7384L117.613 51.54ZM107.413 49.92V46.92H104.413V49.92H107.413ZM107.413 42.84H104.413V45.84H107.413V42.84ZM116.833 41.46L118.864 43.6678L118.888 43.6462L118.911 43.6242L116.833 41.46ZM116.833 33.84L114.802 36.0478L114.826 36.0702L114.851 36.0921L116.833 33.84ZM107.413 32.46V29.46H104.413V32.46H107.413ZM101.713 69V25.2H95.7131V69H101.713ZM98.7131 28.2H112.813V22.2H98.7131V28.2ZM112.813 28.2C116.808 28.2 119.634 29.116 121.599 30.6339L125.267 25.8861C121.952 23.324 117.698 22.2 112.813 22.2V28.2ZM121.622 30.6513C123.48 32.059 124.393 33.8767 124.393 36.42H130.393C130.393 32.0833 128.667 28.461 125.245 25.8687L121.622 30.6513ZM124.393 36.42C124.393 37.8405 124.06 38.9451 123.485 39.8448L128.541 43.0752C129.806 41.0948 130.393 38.8395 130.393 36.42H124.393ZM123.453 39.8956C122.861 40.8654 122.066 41.6125 121.016 42.1652L123.81 47.4748C125.8 46.4275 127.406 44.9346 128.573 43.0243L123.453 39.8956ZM120.987 42.1809C119.965 42.733 118.839 43.02 117.553 43.02V49.02C119.787 49.02 121.901 48.507 123.84 47.4591L120.987 42.1809ZM114.553 46.02V46.2H120.553V46.02H114.553ZM117.614 49.1994C119.159 49.1679 120.47 49.4503 121.606 49.9898L124.18 44.5702C122.116 43.5897 119.867 43.1521 117.492 43.2006L117.614 49.1994ZM121.632 50.0019C122.761 50.5255 123.652 51.2922 124.347 52.3488L129.359 49.0512C128.055 47.0678 126.305 45.5545 124.155 44.5581L121.632 50.0019ZM124.347 52.3488C124.957 53.2767 125.353 54.5499 125.353 56.34H131.353C131.353 53.6501 130.749 51.1633 129.359 49.0512L124.347 52.3488ZM125.353 56.34C125.353 58.3942 124.863 60.0543 123.973 61.4324L129.013 64.6876C130.603 62.2257 131.353 59.4058 131.353 56.34H125.353ZM123.964 61.4459C123.105 62.793 121.849 63.8931 120.07 64.719L122.596 70.161C125.298 68.9069 127.482 67.087 129.022 64.6741L123.964 61.4459ZM120.07 64.719C118.311 65.5356 116.102 66 113.353 66V72C116.765 72 119.875 71.4244 122.596 70.161L120.07 64.719ZM113.353 66H98.7131V72H113.353V66ZM107.413 64.74H112.993V58.74H107.413V64.74ZM112.993 64.74C115.489 64.74 117.836 64.0668 119.654 62.3784L115.572 57.9816C115.15 58.3732 114.417 58.74 112.993 58.74V64.74ZM119.654 62.3784C121.509 60.6566 122.293 58.3502 122.293 55.86H116.293C116.293 57.0498 115.958 57.6234 115.572 57.9816L119.654 62.3784ZM122.293 55.86C122.293 53.3698 121.509 51.0634 119.654 49.3416L115.572 53.7384C115.958 54.0966 116.293 54.6702 116.293 55.86H122.293ZM119.696 49.3805C117.881 47.6305 115.519 46.92 112.993 46.92V52.92C114.388 52.92 115.105 53.2895 115.531 53.6995L119.696 49.3805ZM112.993 46.92H107.413V52.92H112.993V46.92ZM104.413 49.92V61.74H110.413V49.92H104.413ZM107.413 45.84H112.693V39.84H107.413V45.84ZM112.693 45.84C114.977 45.84 117.162 45.2335 118.864 43.6678L114.802 39.2522C114.504 39.5265 113.93 39.84 112.693 39.84V45.84ZM118.911 43.6242C120.592 42.0099 121.333 39.8995 121.333 37.62H115.333C115.333 38.5405 115.074 38.9901 114.756 39.2958L118.911 43.6242ZM121.333 37.62C121.333 35.3339 120.608 33.1661 118.815 31.5879L114.851 36.0921C115.058 36.2739 115.333 36.6261 115.333 37.62H121.333ZM118.864 31.6322C117.162 30.0665 114.977 29.46 112.693 29.46V35.46C113.93 35.46 114.504 35.7735 114.802 36.0478L118.864 31.6322ZM112.693 29.46H107.413V35.46H112.693V29.46ZM104.413 32.46V42.84H110.413V32.46H104.413ZM146.93 69H143.93V72H146.93V69ZM146.93 61.2V58.2H143.93V61.2H146.93ZM155.63 61.2V64.2H158.63V61.2H155.63ZM155.63 33H158.63V30H155.63V33ZM146.93 33H143.93V36H146.93V33ZM146.93 25.2V22.2H143.93V25.2H146.93ZM173.33 25.2H176.33V22.2H173.33V25.2ZM173.33 33V36H176.33V33H173.33ZM164.63 33V30H161.63V33H164.63ZM164.63 61.2H161.63V64.2H164.63V61.2ZM173.33 61.2H176.33V58.2H173.33V61.2ZM173.33 69V72H176.33V69H173.33ZM149.93 69V61.2H143.93V69H149.93ZM146.93 64.2H155.63V58.2H146.93V64.2ZM158.63 61.2V33H152.63V61.2H158.63ZM155.63 30H146.93V36H155.63V30ZM149.93 33V25.2H143.93V33H149.93ZM146.93 28.2H173.33V22.2H146.93V28.2ZM170.33 25.2V33H176.33V25.2H170.33ZM173.33 30H164.63V36H173.33V30ZM161.63 33V61.2H167.63V33H161.63ZM164.63 64.2H173.33V58.2H164.63V64.2ZM170.33 61.2V69H176.33V61.2H170.33ZM173.33 66H146.93V72H173.33V66ZM193.106 69H190.106V72H193.106V69ZM193.106 25.2V22.2H190.106V25.2H193.106ZM203.606 25.2L206.451 24.2483L205.766 22.2H203.606V25.2ZM214.946 59.1L212.101 60.0517L217.936 58.8576L214.946 59.1ZM214.526 54L211.536 54.2441L211.537 54.2491L214.526 54ZM214.106 48.18L211.109 48.3023L211.11 48.3348L211.112 48.3671L214.106 48.18ZM213.986 25.2V22.2H210.986V25.2H213.986ZM221.906 25.2H224.906V22.2H221.906V25.2ZM221.906 69V72H224.906V69H221.906ZM211.406 69L208.558 69.9426L209.239 72H211.406V69ZM200.186 35.1L203.034 34.1574L197.199 35.38L200.186 35.1ZM200.546 39.66L203.539 39.4559L203.539 39.4559L200.546 39.66ZM200.846 45L197.849 45.1332L197.851 45.1664L197.853 45.1996L200.846 45ZM201.026 69V72H204.026V69H201.026ZM196.106 69V25.2H190.106V69H196.106ZM193.106 28.2H203.606V22.2H193.106V28.2ZM200.761 26.1517L212.101 60.0517L217.791 58.1483L206.451 24.2483L200.761 26.1517ZM217.936 58.8576C217.816 57.3748 217.676 55.6725 217.516 53.7509L211.537 54.2491C211.696 56.1675 211.836 57.8652 211.956 59.3424L217.936 58.8576ZM217.516 53.7559C217.358 51.8145 217.219 49.8935 217.1 47.9929L211.112 48.3671C211.233 50.3065 211.375 52.2655 211.536 54.2441L217.516 53.7559ZM217.104 48.0577C217.025 46.1223 216.986 44.5058 216.986 43.2H210.986C210.986 44.6142 211.028 46.3177 211.109 48.3023L217.104 48.0577ZM216.986 43.2V25.2H210.986V43.2H216.986ZM213.986 28.2H221.906V22.2H213.986V28.2ZM218.906 25.2V69H224.906V25.2H218.906ZM221.906 66H211.406V72H221.906V66ZM214.254 68.0574L203.034 34.1574L197.338 36.0426L208.558 69.9426L214.254 68.0574ZM197.199 35.38C197.316 36.6274 197.434 38.1208 197.553 39.8641L203.539 39.4559C203.418 37.6792 203.296 36.1326 203.173 34.82L197.199 35.38ZM197.553 39.8641C197.672 41.6 197.77 43.3563 197.849 45.1332L203.843 44.8668C203.762 43.0437 203.661 41.24 203.539 39.4559L197.553 39.8641ZM197.853 45.1996C197.97 46.951 198.026 48.4823 198.026 49.8H204.026C204.026 48.3177 203.963 46.649 203.84 44.8004L197.853 45.1996ZM198.026 49.8V69H204.026V49.8H198.026ZM201.026 66H193.106V72H201.026V66ZM289.959 69H286.959V72H289.959V69ZM289.959 25.2V22.2H286.959V25.2H289.959ZM298.959 25.2H301.959V22.2H298.959V25.2ZM298.959 60.6H295.959V63.6H298.959V60.6ZM316.659 60.6H319.659V57.6H316.659V60.6ZM316.659 69V72H319.659V69H316.659ZM292.959 69V25.2H286.959V69H292.959ZM289.959 28.2H298.959V22.2H289.959V28.2ZM295.959 25.2V60.6H301.959V25.2H295.959ZM298.959 63.6H316.659V57.6H298.959V63.6ZM313.659 60.6V69H319.659V60.6H313.659ZM316.659 66H289.959V72H316.659V66ZM333.136 69L330.222 68.2855L329.311 72H333.136V69ZM343.876 25.2V22.2H341.523L340.962 24.4855L343.876 25.2ZM355.276 25.2L358.188 24.478L357.623 22.2H355.276V25.2ZM366.136 69V72H369.971L369.048 68.278L366.136 69ZM356.956 69L354.021 69.6225L354.526 72H356.956V69ZM354.856 59.1L357.791 58.4775L357.286 56.1H354.856V59.1ZM344.416 59.1V56.1H341.986L341.481 58.4775L344.416 59.1ZM342.316 69V72H344.746L345.251 69.6225L342.316 69ZM345.916 51.9L342.979 51.2861L342.224 54.9H345.916V51.9ZM353.296 51.9V54.9H356.951L356.238 51.3149L353.296 51.9ZM351.196 41.34L348.246 41.8835L348.249 41.9043L348.254 41.9251L351.196 41.34ZM350.296 36.84L347.346 37.3835L347.354 37.4289L347.364 37.474L350.296 36.84ZM349.636 33.3L352.583 32.7387H346.689L349.636 33.3ZM348.976 36.78L346.028 36.2223L346.021 36.261L346.015 36.2998L348.976 36.78ZM348.136 41.28L345.2 40.662L345.199 40.6661L348.136 41.28ZM336.05 69.7145L346.79 25.9145L340.962 24.4855L330.222 68.2855L336.05 69.7145ZM343.876 28.2H355.276V22.2H343.876V28.2ZM352.364 25.922L363.224 69.722L369.048 68.278L358.188 24.478L352.364 25.922ZM366.136 66H356.956V72H366.136V66ZM359.891 68.3775L357.791 58.4775L351.921 59.7225L354.021 69.6225L359.891 68.3775ZM354.856 56.1H344.416V62.1H354.856V56.1ZM341.481 58.4775L339.381 68.3775L345.251 69.6225L347.351 59.7225L341.481 58.4775ZM342.316 66H333.136V72H342.316V66ZM345.916 54.9H353.296V48.9H345.916V54.9ZM356.238 51.3149L354.138 40.7549L348.254 41.9251L350.354 52.4851L356.238 51.3149ZM354.146 40.7965C353.861 39.2469 353.555 37.7167 353.228 36.206L347.364 37.474C347.677 38.9233 347.971 40.3931 348.246 41.8835L354.146 40.7965ZM353.246 36.2965C352.966 34.7745 352.745 33.5875 352.583 32.7387L346.689 33.8613C346.847 34.6925 347.066 35.8655 347.346 37.3835L353.246 36.2965ZM346.689 32.7387C346.529 33.5805 346.308 34.7419 346.028 36.2223L351.924 37.3377C352.204 35.8581 352.423 34.6995 352.583 33.8613L346.689 32.7387ZM346.015 36.2998C345.782 37.732 345.511 39.1861 345.2 40.662L351.072 41.898C351.401 40.3339 351.689 38.788 351.937 37.2602L346.015 36.2998ZM345.199 40.6661L342.979 51.2861L348.852 52.5138L351.072 41.8938L345.199 40.6661ZM381.533 69H378.533V72H381.533V69ZM381.533 25.2V22.2H378.533V25.2H381.533ZM391.673 25.2L394.553 24.361L393.923 22.2H391.673V25.2ZM395.693 39L392.812 39.839L392.818 39.8579L392.823 39.8767L395.693 39ZM396.653 42.78L393.703 43.3263L393.712 43.3787L393.724 43.4308L396.653 42.78ZM397.073 45.06L394.085 45.3316L400.06 45.3316L397.073 45.06ZM397.433 42.78L394.504 42.1292L394.492 42.1813L394.483 42.2337L397.433 42.78ZM398.393 39L395.509 38.1725L395.505 38.1848L395.502 38.1971L398.393 39ZM402.353 25.2V22.2H400.092L399.469 24.3725L402.353 25.2ZM412.493 25.2H415.493V22.2H412.493V25.2ZM412.493 69V72H415.493V69H412.493ZM404.273 69H401.273V72H404.273V69ZM404.393 50.1L401.396 49.9526L401.395 49.9763L401.394 50.0001L404.393 50.1ZM404.813 42.84L401.819 42.6404L401.819 42.6404L404.813 42.84ZM405.353 36.12L408.339 36.4071L408.339 36.4018L405.353 36.12ZM405.893 30.6L408.877 30.9061L402.985 29.86L405.893 30.6ZM400.853 50.4V53.4H403.185L403.76 51.14L400.853 50.4ZM393.233 50.4L390.334 51.173L390.928 53.4H393.233V50.4ZM387.953 30.6L390.851 29.827L384.98 31.0018L387.953 30.6ZM388.553 35.94L385.566 36.2271L385.567 36.2327L388.553 35.94ZM389.093 42.6L386.099 42.7996L386.101 42.8265L386.103 42.8533L389.093 42.6ZM389.573 49.86L392.569 49.715L392.569 49.715L389.573 49.86ZM389.753 69V72H392.753V69H389.753ZM384.533 69V25.2H378.533V69H384.533ZM381.533 28.2H391.673V22.2H381.533V28.2ZM388.792 26.039L392.812 39.839L398.573 38.161L394.553 24.361L388.792 26.039ZM392.823 39.8767C393.242 41.2448 393.529 42.3901 393.703 43.3263L399.602 42.2337C399.376 41.0099 399.024 39.6352 398.562 38.1233L392.823 39.8767ZM393.724 43.4308C393.965 44.5165 394.064 45.1054 394.085 45.3316L400.06 44.7884C400.001 44.1346 399.82 43.2035 399.581 42.1292L393.724 43.4308ZM400.06 45.3316C400.086 45.0456 400.182 44.4095 400.382 43.3263L394.483 42.2337C394.283 43.3105 394.139 44.1944 394.085 44.7884L400.06 45.3316ZM400.361 43.4308C400.587 42.4159 400.893 41.2087 401.283 39.8029L395.502 38.1971C395.092 39.6713 394.758 40.9841 394.504 42.1292L400.361 43.4308ZM401.276 39.8275L405.236 26.0275L399.469 24.3725L395.509 38.1725L401.276 39.8275ZM402.353 28.2H412.493V22.2H402.353V28.2ZM409.493 25.2V69H415.493V25.2H409.493ZM412.493 66H404.273V72H412.493V66ZM407.273 69V57H401.273V69H407.273ZM407.273 57C407.273 54.8362 407.312 52.5696 407.391 50.1999L401.394 50.0001C401.313 52.4304 401.273 54.7638 401.273 57H407.273ZM407.389 50.2474C407.508 47.8245 407.647 45.4219 407.806 43.0396L401.819 42.6404C401.658 45.0581 401.517 47.4955 401.396 49.9526L407.389 50.2474ZM407.806 43.0396C407.964 40.6645 408.142 38.454 408.339 36.4071L402.366 35.8329C402.163 37.946 401.981 40.2155 401.819 42.6404L407.806 43.0396ZM408.339 36.4018C408.539 34.2872 408.718 32.4557 408.877 30.9061L402.908 30.2939C402.747 31.8643 402.566 33.7128 402.366 35.8382L408.339 36.4018ZM402.985 29.86L397.945 49.66L403.76 51.14L408.8 31.34L402.985 29.86ZM400.853 47.4H393.233V53.4H400.853V47.4ZM396.131 49.627L390.851 29.827L385.054 31.373L390.334 51.173L396.131 49.627ZM384.98 31.0018C385.173 32.432 385.369 34.1716 385.566 36.2271L391.539 35.6529C391.336 33.5484 391.132 31.728 390.925 30.1982L384.98 31.0018ZM385.567 36.2327C385.763 38.237 385.941 40.4255 386.099 42.7996L392.086 42.4004C391.924 39.9745 391.742 37.723 391.538 35.6473L385.567 36.2327ZM386.103 42.8533C386.3 45.1756 386.458 47.5594 386.576 50.005L392.569 49.715C392.447 47.2006 392.285 44.7444 392.082 42.3467L386.103 42.8533ZM386.576 50.005C386.694 52.4409 386.753 54.7724 386.753 57H392.753C392.753 54.6676 392.691 52.2391 392.569 49.715L386.576 50.005ZM386.753 57V69H392.753V57H386.753ZM389.753 66H381.533V72H389.753V66ZM431.189 69H428.189V72H431.189V69ZM431.189 61.2V58.2H428.189V61.2H431.189ZM439.889 61.2V64.2H442.889V61.2H439.889ZM439.889 33H442.889V30H439.889V33ZM431.189 33H428.189V36H431.189V33ZM431.189 25.2V22.2H428.189V25.2H431.189ZM457.589 25.2H460.589V22.2H457.589V25.2ZM457.589 33V36H460.589V33H457.589ZM448.889 33V30H445.889V33H448.889ZM448.889 61.2H445.889V64.2H448.889V61.2ZM457.589 61.2H460.589V58.2H457.589V61.2ZM457.589 69V72H460.589V69H457.589ZM434.189 69V61.2H428.189V69H434.189ZM431.189 64.2H439.889V58.2H431.189V64.2ZM442.889 61.2V33H436.889V61.2H442.889ZM439.889 30H431.189V36H439.889V30ZM434.189 33V25.2H428.189V33H434.189ZM431.189 28.2H457.589V22.2H431.189V28.2ZM454.589 25.2V33H460.589V25.2H454.589ZM457.589 30H448.889V36H457.589V30ZM445.889 33V61.2H451.889V33H445.889ZM448.889 64.2H457.589V58.2H448.889V64.2ZM454.589 61.2V69H460.589V61.2H454.589ZM457.589 66H431.189V72H457.589V66ZM484.326 67.98L482.965 70.6535L482.984 70.6634L483.004 70.673L484.326 67.98ZM479.166 63.36L476.593 64.9035L476.611 64.9339L476.63 64.9639L479.166 63.36ZM479.166 30.84L476.63 29.2361L476.619 29.2547L476.607 29.2735L479.166 30.84ZM484.326 26.28L485.648 28.973L485.667 28.9634L485.687 28.9535L484.326 26.28ZM499.686 26.28L498.305 28.9433L498.334 28.9585L498.364 28.973L499.686 26.28ZM504.786 30.84L502.227 32.4065L502.239 32.4253L502.25 32.4439L504.786 30.84ZM506.646 37.8V40.8H509.646V37.8H506.646ZM497.646 37.8H494.646V40.8H497.646V37.8ZM496.146 33.78L494.07 35.946L494.092 35.9671L494.114 35.9878L496.146 33.78ZM487.806 33.78L485.774 31.5722L485.752 31.5929L485.73 31.614L487.806 33.78ZM487.806 60.42L485.684 62.5413L485.728 62.5855L485.774 62.6278L487.806 60.42ZM496.146 60.42L498.221 62.586L498.223 62.5842L496.146 60.42ZM497.646 56.4V53.4H494.646V56.4H497.646ZM506.646 56.4H509.646V53.4H506.646V56.4ZM504.786 63.36L502.236 61.7792L502.231 61.7863L502.227 61.7935L504.786 63.36ZM499.686 67.98L501.027 70.6633L501.037 70.6584L501.047 70.6535L499.686 67.98ZM492.006 66.6C489.457 66.6 487.365 66.1299 485.648 65.287L483.004 70.673C485.687 71.9901 488.714 72.6 492.006 72.6V66.6ZM485.687 65.3065C483.935 64.4147 482.634 63.231 481.701 61.7561L476.63 64.9639C478.177 67.409 480.316 69.3053 482.965 70.6535L485.687 65.3065ZM481.738 61.8165C480.853 60.3419 480.366 58.5696 480.366 56.4H474.366C474.366 59.5104 475.078 62.3781 476.593 64.9035L481.738 61.8165ZM480.366 56.4V37.8H474.366V56.4H480.366ZM480.366 37.8C480.366 35.5796 480.858 33.8213 481.724 32.4065L476.607 29.2735C475.073 31.7787 474.366 34.6604 474.366 37.8H480.366ZM481.701 32.4439C482.628 30.9789 483.915 29.8234 485.648 28.973L483.004 23.587C480.336 24.8966 478.184 26.7811 476.63 29.2361L481.701 32.4439ZM485.687 28.9535C487.395 28.084 489.473 27.6 492.006 27.6V21.6C488.699 21.6 485.657 22.236 482.965 23.6065L485.687 28.9535ZM492.006 27.6C494.588 27.6 496.654 28.0874 498.305 28.9433L501.067 23.6167C498.397 22.2326 495.343 21.6 492.006 21.6V27.6ZM498.364 28.973C500.088 29.8197 501.344 30.9642 502.227 32.4065L507.344 29.2735C505.827 26.7958 503.683 24.9003 501.008 23.587L498.364 28.973ZM502.25 32.4439C503.142 33.8531 503.646 35.5977 503.646 37.8H509.646C509.646 34.6423 508.909 31.7469 507.321 29.2361L502.25 32.4439ZM506.646 34.8H497.646V40.8H506.646V34.8ZM500.646 37.8C500.646 35.463 499.964 33.2162 498.177 31.5722L494.114 35.9878C494.327 36.1838 494.646 36.617 494.646 37.8H500.646ZM498.221 31.614C496.529 29.9925 494.3 29.4 492.006 29.4V35.4C493.311 35.4 493.842 35.7275 494.07 35.946L498.221 31.614ZM492.006 29.4C489.703 29.4 487.488 29.9957 485.774 31.5722L489.837 35.9878C490.123 35.7243 490.708 35.4 492.006 35.4V29.4ZM485.73 31.614C484.006 33.266 483.366 35.4982 483.366 37.8H489.366C489.366 36.5818 489.685 36.134 489.881 35.946L485.73 31.614ZM483.366 37.8V56.4H489.366V37.8H483.366ZM483.366 56.4C483.366 58.6923 484.021 60.8784 485.684 62.5413L489.927 58.2987C489.67 58.0416 489.366 57.5477 489.366 56.4H483.366ZM485.774 62.6278C487.488 64.2043 489.703 64.8 492.006 64.8V58.8C490.708 58.8 490.123 58.4757 489.837 58.2122L485.774 62.6278ZM492.006 64.8C494.3 64.8 496.529 64.2075 498.221 62.586L494.07 58.254C493.842 58.4725 493.311 58.8 492.006 58.8V64.8ZM498.223 62.5842C499.948 60.9281 500.646 58.7273 500.646 56.4H494.646C494.646 57.5127 494.343 57.9919 494.068 58.2558L498.223 62.5842ZM497.646 59.4H506.646V53.4H497.646V59.4ZM503.646 56.4C503.646 58.5514 503.147 60.3101 502.236 61.7792L507.335 64.9408C508.904 62.4099 509.646 59.5286 509.646 56.4H503.646ZM502.227 61.7935C501.338 63.2459 500.069 64.4185 498.325 65.3065L501.047 70.6535C503.702 69.3015 505.833 67.3941 507.344 64.9265L502.227 61.7935ZM498.344 65.2967C496.684 66.1267 494.603 66.6 492.006 66.6V72.6C495.328 72.6 498.367 71.9933 501.027 70.6633L498.344 65.2967ZM525.102 69H522.102V72H525.102V69ZM525.102 25.2V22.2H522.102V25.2H525.102ZM534.102 25.2H537.102V22.2H534.102V25.2ZM534.102 42H531.102V45H534.102V42ZM544.182 42V45H547.182V42H544.182ZM544.182 25.2V22.2H541.182V25.2H544.182ZM553.182 25.2H556.182V22.2H553.182V25.2ZM553.182 69V72H556.182V69H553.182ZM544.182 69H541.182V72H544.182V69ZM544.182 50.4H547.182V47.4H544.182V50.4ZM534.102 50.4V47.4H531.102V50.4H534.102ZM534.102 69V72H537.102V69H534.102ZM528.102 69V25.2H522.102V69H528.102ZM525.102 28.2H534.102V22.2H525.102V28.2ZM531.102 25.2V42H537.102V25.2H531.102ZM534.102 45H544.182V39H534.102V45ZM547.182 42V25.2H541.182V42H547.182ZM544.182 28.2H553.182V22.2H544.182V28.2ZM550.182 25.2V69H556.182V25.2H550.182ZM553.182 66H544.182V72H553.182V66ZM547.182 69V50.4H541.182V69H547.182ZM544.182 47.4H534.102V53.4H544.182V47.4ZM531.102 50.4V69H537.102V50.4H531.102ZM534.102 66H525.102V72H534.102V66ZM572.479 69H569.479V72H572.479V69ZM572.479 25.2V22.2H569.479V25.2H572.479ZM581.479 25.2H584.479V22.2H581.479V25.2ZM581.479 42H578.479V45H581.479V42ZM591.559 42V45H594.559V42H591.559ZM591.559 25.2V22.2H588.559V25.2H591.559ZM600.559 25.2H603.559V22.2H600.559V25.2ZM600.559 69V72H603.559V69H600.559ZM591.559 69H588.559V72H591.559V69ZM591.559 50.4H594.559V47.4H591.559V50.4ZM581.479 50.4V47.4H578.479V50.4H581.479ZM581.479 69V72H584.479V69H581.479ZM575.479 69V25.2H569.479V69H575.479ZM572.479 28.2H581.479V22.2H572.479V28.2ZM578.479 25.2V42H584.479V25.2H578.479ZM581.479 45H591.559V39H581.479V45ZM594.559 42V25.2H588.559V42H594.559ZM591.559 28.2H600.559V22.2H591.559V28.2ZM597.559 25.2V69H603.559V25.2H597.559ZM600.559 66H591.559V72H600.559V66ZM594.559 69V50.4H588.559V69H594.559ZM591.559 47.4H581.479V53.4H591.559V47.4ZM578.479 50.4V69H584.479V50.4H578.479ZM581.479 66H572.479V72H581.479V66ZM617.395 69L614.482 68.2855L613.571 72H617.395V69ZM628.135 25.2V22.2H625.782L625.222 24.4855L628.135 25.2ZM639.535 25.2L642.447 24.478L641.882 22.2H639.535V25.2ZM650.395 69V72H654.23L653.307 68.278L650.395 69ZM641.215 69L638.281 69.6225L638.785 72H641.215V69ZM639.115 59.1L642.05 58.4775L641.546 56.1H639.115V59.1ZM628.675 59.1V56.1H626.245L625.741 58.4775L628.675 59.1ZM626.575 69V72H629.006L629.51 69.6225L626.575 69ZM630.175 51.9L627.239 51.2861L626.483 54.9H630.175V51.9ZM637.555 51.9V54.9H641.211L640.498 51.3149L637.555 51.9ZM635.455 41.34L632.505 41.8835L632.509 41.9043L632.513 41.9251L635.455 41.34ZM634.555 36.84L631.605 37.3835L631.613 37.4289L631.623 37.474L634.555 36.84ZM633.895 33.3L636.842 32.7387H630.948L633.895 33.3ZM633.235 36.78L630.288 36.2223L630.28 36.261L630.274 36.2998L633.235 36.78ZM632.395 41.28L629.46 40.662L629.459 40.6661L632.395 41.28ZM620.309 69.7145L631.049 25.9145L625.222 24.4855L614.482 68.2855L620.309 69.7145ZM628.135 28.2H639.535V22.2H628.135V28.2ZM636.623 25.922L647.483 69.722L653.307 68.278L642.447 24.478L636.623 25.922ZM650.395 66H641.215V72H650.395V66ZM644.15 68.3775L642.05 58.4775L636.181 59.7225L638.281 69.6225L644.15 68.3775ZM639.115 56.1H628.675V62.1H639.115V56.1ZM625.741 58.4775L623.641 68.3775L629.51 69.6225L631.61 59.7225L625.741 58.4775ZM626.575 66H617.395V72H626.575V66ZM630.175 54.9H637.555V48.9H630.175V54.9ZM640.498 51.3149L638.398 40.7549L632.513 41.9251L634.613 52.4851L640.498 51.3149ZM638.406 40.7965C638.12 39.2469 637.814 37.7167 637.488 36.206L631.623 37.474C631.936 38.9233 632.23 40.3931 632.505 41.8835L638.406 40.7965ZM637.506 36.2965C637.225 34.7745 637.004 33.5875 636.842 32.7387L630.948 33.8613C631.107 34.6925 631.325 35.8655 631.605 37.3835L637.506 36.2965ZM630.948 32.7387C630.788 33.5805 630.568 34.7419 630.288 36.2223L636.183 37.3377C636.463 35.8581 636.683 34.6995 636.842 33.8613L630.948 32.7387ZM630.274 36.2998C630.042 37.732 629.77 39.1861 629.46 40.662L635.331 41.898C635.66 40.3339 635.949 38.788 636.197 37.2602L630.274 36.2998ZM629.459 40.6661L627.239 51.2861L633.112 52.5138L635.332 41.8938L629.459 40.6661ZM666.872 69H663.872V72H666.872V69ZM666.872 25.2V22.2H663.872V25.2H666.872ZM677.372 25.2L680.217 24.2483L679.532 22.2H677.372V25.2ZM688.712 59.1L685.867 60.0517L691.702 58.8576L688.712 59.1ZM688.292 54L685.302 54.2441L685.302 54.2491L688.292 54ZM687.872 48.18L684.874 48.3023L684.876 48.3348L684.878 48.3671L687.872 48.18ZM687.752 25.2V22.2H684.752V25.2H687.752ZM695.672 25.2H698.672V22.2H695.672V25.2ZM695.672 69V72H698.672V69H695.672ZM685.172 69L682.324 69.9426L683.005 72H685.172V69ZM673.952 35.1L676.8 34.1574L670.965 35.38L673.952 35.1ZM674.312 39.66L677.305 39.4559L677.305 39.4559L674.312 39.66ZM674.612 45L671.615 45.1332L671.616 45.1664L671.618 45.1996L674.612 45ZM674.792 69V72H677.792V69H674.792ZM669.872 69V25.2H663.872V69H669.872ZM666.872 28.2H677.372V22.2H666.872V28.2ZM674.527 26.1517L685.867 60.0517L691.557 58.1483L680.217 24.2483L674.527 26.1517ZM691.702 58.8576C691.582 57.3748 691.442 55.6725 691.281 53.7509L685.302 54.2491C685.462 56.1675 685.602 57.8652 685.722 59.3424L691.702 58.8576ZM691.282 53.7559C691.123 51.8145 690.985 49.8935 690.866 47.9929L684.878 48.3671C684.999 50.3065 685.14 52.2655 685.302 54.2441L691.282 53.7559ZM690.869 48.0577C690.79 46.1223 690.752 44.5058 690.752 43.2H684.752C684.752 44.6142 684.793 46.3177 684.874 48.3023L690.869 48.0577ZM690.752 43.2V25.2H684.752V43.2H690.752ZM687.752 28.2H695.672V22.2H687.752V28.2ZM692.672 25.2V69H698.672V25.2H692.672ZM695.672 66H685.172V72H695.672V66ZM688.02 68.0574L676.8 34.1574L671.104 36.0426L682.324 69.9426L688.02 68.0574ZM670.965 35.38C671.082 36.6274 671.2 38.1208 671.319 39.8641L677.305 39.4559C677.184 37.6792 677.062 36.1326 676.939 34.82L670.965 35.38ZM671.319 39.8641C671.437 41.6 671.536 43.3563 671.615 45.1332L677.609 44.8668C677.528 43.0437 677.427 41.24 677.305 39.4559L671.319 39.8641ZM671.618 45.1996C671.735 46.951 671.792 48.4823 671.792 49.8H677.792C677.792 48.3177 677.728 46.649 677.605 44.8004L671.618 45.1996ZM671.792 49.8V69H677.792V49.8H671.792ZM674.792 66H666.872V72H674.792V66ZM715.448 69H712.448V72H715.448V69ZM715.448 25.2V22.2H712.448V25.2H715.448ZM742.448 25.2H745.448V22.2H742.448V25.2ZM742.448 32.88V35.88H745.448V32.88H742.448ZM724.268 32.88V29.88H721.268V32.88H724.268ZM724.268 42.72H721.268V45.72H724.268V42.72ZM740.348 42.72H743.348V39.72H740.348V42.72ZM740.348 50.4V53.4H743.348V50.4H740.348ZM724.268 50.4V47.4H721.268V50.4H724.268ZM724.268 61.32H721.268V64.32H724.268V61.32ZM742.448 61.32H745.448V58.32H742.448V61.32ZM742.448 69V72H745.448V69H742.448ZM718.448 69V25.2H712.448V69H718.448ZM715.448 28.2H742.448V22.2H715.448V28.2ZM739.448 25.2V32.88H745.448V25.2H739.448ZM742.448 29.88H724.268V35.88H742.448V29.88ZM721.268 32.88V42.72H727.268V32.88H721.268ZM724.268 45.72H740.348V39.72H724.268V45.72ZM737.348 42.72V50.4H743.348V42.72H737.348ZM740.348 47.4H724.268V53.4H740.348V47.4ZM721.268 50.4V61.32H727.268V50.4H721.268ZM724.268 64.32H742.448V58.32H724.268V64.32ZM739.448 61.32V69H745.448V61.32H739.448ZM742.448 66H715.448V72H742.448V66Z" fill="url(#paint0_linear_6_333)"/>
<defs>
<linearGradient id="paint0_linear_6_333" x1="-4.97038e-06" y1="-24.0001" x2="827.88" y2="51.9948" gradientUnits="userSpaceOnUse">
<stop stop-color="#C83232"/>
<stop offset="1" stop-color="#0F52FF" stop-opacity="0.94"/>
</linearGradient>
</defs>
</svg>
