<svg width="42" height="42" viewBox="0 0 42 42" fill="none" xmlns="http://www.w3.org/2000/svg">
<path d="M25.0995 24.5121L26.9619 24.7076V39.8672L21.8176 34.374V25.6347L23.3117 26.3644L25.0995 24.5121ZM16.9005 24.5121L15.0371 24.7076V39.8672L20.1813 34.374V25.6347L18.6873 26.3644L16.9005 24.5121ZM31.0082 15.0145L31.6109 17.1124L29.8017 18.3322L29.6502 20.5118L27.533 21.0389L26.6468 23.0334L24.4762 22.8041L22.9607 24.3698L21 23.412L19.0393 24.3698L17.5238 22.7989L15.3532 23.0282L14.467 21.0338L12.3498 20.5118L12.1983 18.3352L10.3839 17.1113L10.9867 15.0135L9.7075 13.2462L10.9908 11.4809L10.3839 9.38725L12.1942 8.16744L12.3457 5.99074L14.467 5.46886L15.3532 3.47443L17.5238 3.70363L19.0393 2.13281L21 3.09069L22.9607 2.13281L24.4762 3.70363L26.6468 3.47443L27.533 5.46886L29.6502 5.99591L29.8017 8.17253L31.6109 9.39233L31.0082 11.4902L32.2925 13.2462L31.0082 15.0145ZM26.9711 13.2462C26.9711 12.0742 26.6236 10.9284 25.9724 9.95388C25.3212 8.97933 24.3957 8.21977 23.3129 7.77124C22.23 7.32271 21.0385 7.20535 19.8889 7.43401C18.7394 7.66267 17.6834 8.22708 16.8546 9.05586C16.0259 9.88464 15.4615 10.9406 15.2328 12.0901C15.0041 13.2397 15.1215 14.4312 15.57 15.5141C16.0186 16.5969 16.7781 17.5224 17.7527 18.1736C18.7272 18.8248 19.873 19.1723 21.045 19.1723C22.616 19.1699 24.1219 18.5447 25.2327 17.4339C26.3435 16.3231 26.9687 14.8172 26.9711 13.2462ZM21.045 8.9574C20.1968 8.9574 19.3676 9.20893 18.6623 9.68018C17.9571 10.1514 17.4074 10.8212 17.0827 11.6049C16.7581 12.3886 16.6732 13.2509 16.8387 14.0828C17.0042 14.9148 17.4126 15.6789 18.0124 16.2787C18.6122 16.8785 19.3764 17.287 20.2083 17.4525C21.0402 17.618 21.9025 17.5331 22.6862 17.2085C23.4699 16.8839 24.1397 16.3342 24.611 15.6289C25.0822 14.9237 25.3338 14.0945 25.3338 13.2462C25.3305 12.1101 24.8776 11.0214 24.0739 10.2183C23.2702 9.41518 22.1812 8.96297 21.045 8.96052V8.9574Z" fill="white"/>
</svg>
