<svg width="300" height="300" viewBox="0 0 426 506" fill="none" xmlns="http://www.w3.org/2000/svg">
<path d="M44.7693 505.557C14.9842 505.557 0.0915833 500.981 0.0915833 491.832C0.0915833 487.257 2.37242 481.335 6.93412 474.067L154.652 242.339L23.4368 32.0061C18.875 23.6628 16.5942 17.6071 16.5942 13.8392C16.5942 9.80206 20.3508 6.57239 27.8642 4.15014C35.646 1.45873 47.0502 0.113037 62.077 0.113037H91.4595C114.536 0.113037 128.758 4.68842 134.125 13.8392L215.832 147.467L301.565 13.8392C305.591 8.45637 310.957 4.82299 317.666 2.939C324.643 1.05503 333.9 0.113037 345.439 0.113037H373.21C403.265 0.113037 418.291 4.68842 418.291 13.8392C418.291 18.9528 416.011 25.0085 411.449 32.0061L276.209 243.953L419.095 474.067C423.39 480.796 425.537 486.717 425.537 491.832C425.537 500.981 410.509 505.557 380.456 505.557H352.683C341.146 505.557 331.887 504.616 324.911 502.731C317.934 500.847 312.97 497.214 310.018 491.832L214.625 337.614L115.61 491.832C111.853 498.021 106.755 501.924 100.315 503.539C94.1428 504.885 84.7512 505.557 72.1395 505.557H44.7693Z" fill="white"/>
</svg>
