<svg width="38" height="37" viewBox="0 0 38 37" fill="none" xmlns="http://www.w3.org/2000/svg">
<path d="M19 0.666687C16.5925 0.666687 14.2085 1.14089 11.9842 2.06223C9.75985 2.98357 7.7388 4.33399 6.0364 6.0364C2.59823 9.47456 0.666687 14.1377 0.666687 19C0.666687 27.1034 5.92835 33.9784 13.2067 36.4167C14.1234 36.5634 14.4167 35.995 14.4167 35.5V32.4017C9.33835 33.5017 8.25669 29.945 8.25669 29.945C7.41335 27.8184 6.22169 27.25 6.22169 27.25C4.55335 26.1134 6.35002 26.15 6.35002 26.15C8.18335 26.2784 9.15502 28.0384 9.15502 28.0384C10.75 30.825 13.445 30 14.49 29.56C14.655 28.3684 15.1317 27.5617 15.645 27.1034C11.575 26.645 7.30335 25.0684 7.30335 18.0834C7.30335 16.0484 8.00002 14.4167 9.19169 13.115C9.00835 12.6567 8.36669 10.75 9.37502 8.27502C9.37502 8.27502 10.915 7.78002 14.4167 10.145C15.865 9.74169 17.4417 9.54002 19 9.54002C20.5584 9.54002 22.135 9.74169 23.5834 10.145C27.085 7.78002 28.625 8.27502 28.625 8.27502C29.6334 10.75 28.9917 12.6567 28.8084 13.115C30 14.4167 30.6967 16.0484 30.6967 18.0834C30.6967 25.0867 26.4067 26.6267 22.3184 27.085C22.9784 27.6534 23.5834 28.7717 23.5834 30.4767V35.5C23.5834 35.995 23.8767 36.5817 24.8117 36.4167C32.09 33.96 37.3334 27.1034 37.3334 19C37.3334 16.5925 36.8592 14.2085 35.9378 11.9842C35.0165 9.75985 33.6661 7.7388 31.9636 6.0364C30.2612 4.33399 28.2402 2.98357 26.0159 2.06223C23.7916 1.14089 21.4076 0.666687 19 0.666687Z" fill="black"/>
</svg>
