<svg width="42" height="42" viewBox="0 0 42 42" fill="none" xmlns="http://www.w3.org/2000/svg">
<path d="M35.7858 35.7864H29.5627V26.0406C29.5627 23.7167 29.5212 20.725 26.3261 20.725C23.0849 20.725 22.5889 23.2572 22.5889 25.8715V35.7858H16.366V15.7446H22.34V18.4834H22.4237C23.0216 17.4612 23.8855 16.6202 24.9235 16.0501C25.9615 15.48 27.1347 15.2021 28.3182 15.246C34.6255 15.246 35.7884 19.3948 35.7884 24.7921L35.7858 35.7864ZM9.34416 13.0052C7.34965 13.0055 5.73249 11.3889 5.73216 9.39436C5.73183 7.39986 7.34834 5.78269 9.34285 5.78236C11.3374 5.78187 12.9545 7.39854 12.9548 9.39305C12.955 10.3509 12.5747 11.2695 11.8976 11.9469C11.2205 12.6243 10.302 13.005 9.34416 13.0052ZM12.4558 35.7866H6.22615V15.7446H12.4556V35.7864L12.4558 35.7866ZM38.8882 0.00293472H3.09912C1.40764 -0.0160965 0.0204888 1.3389 -0.000183105 3.03038V38.9688C0.0198325 40.6611 1.40682 42.0174 3.09896 41.9997H38.8882C40.584 42.0207 41.9764 40.6643 41.9998 38.9688V3.02759C41.9757 1.33283 40.5831 -0.0220028 38.8882 0.000145662" fill="#0A66C2"/>
</svg>
