<svg width="38" height="38" viewBox="0 0 38 38" fill="none" xmlns="http://www.w3.org/2000/svg">
<path d="M0 0V38H38V0H0ZM31.5673 9.00481L29.5319 10.9594C29.3526 11.0889 29.2659 11.3121 29.3028 11.5283V25.8839C29.2659 26.1072 29.3526 26.3233 29.5319 26.4587L31.5174 28.4133V28.8396H21.5104V28.4133L23.5695 26.4088C23.7737 26.2046 23.7738 26.1488 23.7738 25.84V14.231L18.0405 28.7897H17.2674L10.5937 14.231V23.9911C10.5379 24.3996 10.6744 24.814 10.9582 25.1109L13.642 28.3646V28.7909H6.04081V28.3646L8.72456 25.1109C9.00956 24.814 9.139 24.3996 9.06419 23.9911V12.7098C9.101 12.3939 8.9775 12.0852 8.74237 11.875L6.36144 9.00481V8.57137H13.7584L19.4797 21.1209L24.5076 8.57137H31.5649L31.5673 9.00481Z" fill="black"/>
</svg>
