<svg width="56" height="56" viewBox="0 0 56 56" fill="none" xmlns="http://www.w3.org/2000/svg">
<g clip-path="url(#clip0_2_30)">
<mask id="mask0_2_30" style="mask-type:luminance" maskUnits="userSpaceOnUse" x="0" y="0" width="56" height="56">
<path d="M0 0H56V56H0V0Z" fill="white"/>
</mask>
<g mask="url(#mask0_2_30)">
<path d="M26.166 0.0142917C26.0447 0.0259583 25.662 0.065625 25.3167 0.0912917C17.3647 0.809958 9.91667 5.10096 5.194 11.6973C2.58604 15.318 0.89068 19.5147 0.252 23.931C0.028 25.471 0 25.9236 0 28.0096C0 30.0956 0.028 30.5506 0.252 32.0883C1.77333 42.6046 9.25867 51.4386 19.4063 54.7123C21.224 55.298 23.1397 55.697 25.3167 55.9396C26.166 56.033 29.834 56.033 30.6833 55.9396C34.4423 55.522 37.6297 54.591 40.7703 52.988C41.2533 52.743 41.3467 52.6753 41.2813 52.6216C39.7451 50.5956 38.2245 48.5578 36.7197 46.5083L32.242 40.458L26.6327 32.1536C24.7663 29.376 22.8825 26.6102 20.9813 23.8563C20.9603 23.8493 20.9393 27.5383 20.9277 32.0463C20.9113 39.933 20.9043 40.2503 20.8063 40.437C20.7107 40.6548 20.5402 40.8312 20.3257 40.934C20.1507 41.0226 19.999 41.039 19.1707 41.039H18.2233L17.9713 40.8803C17.8154 40.7818 17.6888 40.6432 17.605 40.479L17.4883 40.234L17.5 29.258L17.5163 18.2773L17.6867 18.0626C17.8013 17.9284 17.9388 17.8155 18.0927 17.729C18.3167 17.6193 18.403 17.61 19.3527 17.61C20.468 17.61 20.6547 17.652 20.944 17.9693C21.0257 18.058 24.0637 22.636 27.699 28.1473L38.745 44.882L43.1783 51.5973L43.4047 51.4503C45.5383 50.0318 47.4726 48.3345 49.1563 46.4033C52.6847 42.365 54.9734 37.3947 55.748 32.0883C55.972 30.5483 56 30.0956 56 28.0096C56 25.9236 55.972 25.471 55.748 23.931C54.2267 13.417 46.7413 4.58063 36.5937 1.30696C34.6971 0.703953 32.7442 0.295079 30.765 0.086625C30.2377 0.030625 26.621 -0.0300417 26.1683 0.016625L26.166 0.0142917ZM37.6297 16.9543C37.7598 17.0198 37.8756 17.1105 37.9706 17.221C38.0655 17.3315 38.1376 17.4598 38.1827 17.5983C38.2247 17.7383 38.2363 20.7833 38.2247 27.6433L38.2083 37.4853L36.4747 34.8253L34.734 32.1653V25.0113C34.734 20.3843 34.755 17.785 34.7877 17.659C34.8265 17.5132 34.8945 17.3769 34.9876 17.2581C35.0806 17.1394 35.1968 17.0408 35.329 16.9683C35.5553 16.8516 35.637 16.8423 36.4957 16.8423C37.3053 16.8423 37.4477 16.8563 37.6297 16.9543Z" fill="black"/>
</g>
</g>
<defs>
<clipPath id="clip0_2_30">
<rect width="56" height="56" fill="white"/>
</clipPath>
</defs>
</svg>
