<svg width="60" height="69" viewBox="0 0 60 69" fill="none" xmlns="http://www.w3.org/2000/svg">
<g clip-path="url(#clip0_3_149)">
<path d="M55.7016 14.0593L34.1027 1.15552C32.8426 0.399325 31.4028 9.15527e-05 29.9356 9.15527e-05C28.4685 9.15527e-05 27.0287 0.399325 25.7686 1.15552L4.16511 14.0593C2.88773 14.8347 1.83232 15.9306 1.1022 17.2397C0.372078 18.5487 -0.00773764 20.0261 -6.92503e-05 21.5272V47.3305C-0.00699436 48.8309 0.373175 50.3074 1.10326 51.6157C1.83335 52.9239 2.88835 54.0191 4.16511 54.7941L25.764 67.6936C27.0243 68.4494 28.4641 68.8484 29.9312 68.8484C31.3983 68.8484 32.8382 68.4494 34.0984 67.6936L55.6973 54.7941C56.9755 54.0193 58.0318 52.9236 58.7627 51.6145C59.4936 50.3054 59.874 48.8277 59.8668 47.3262V21.5272C59.8745 20.0261 59.4947 18.5487 58.7645 17.2397C58.0344 15.9306 56.979 14.8347 55.7016 14.0593Z" fill="white"/>
<path d="M55.8246 14.0903L34.178 1.15824C32.9151 0.400306 31.472 0.000152588 30.0015 0.000152588C28.5311 0.000152588 27.088 0.400306 25.8251 1.15824L4.17422 14.0903C2.89404 14.8675 1.83632 15.9657 1.10461 17.2777C0.372889 18.5896 -0.00775586 20.0703 -6.89492e-05 21.5747V47.4349C-0.00701259 48.9385 0.373986 50.4183 1.10567 51.7294C1.83735 53.0406 2.89466 54.1382 4.17422 54.9149L25.8208 67.8427C27.0838 68.6001 28.5268 69 29.9971 69C31.4674 69 32.9104 68.6001 34.1734 67.8427L55.82 54.9149C57.101 54.1383 58.1596 53.0402 58.8921 51.7282C59.6246 50.4161 60.0059 48.9352 59.9986 47.4303V21.5747C60.0063 20.0703 59.6257 18.5897 58.894 17.2777C58.1624 15.9658 57.1047 14.8675 55.8246 14.0903ZM26.5794 66.5212L4.93279 53.5934C3.88113 52.9521 3.01228 52.0479 2.41073 50.9687C1.80919 49.8894 1.49542 48.672 1.49993 47.4346V21.575C1.49504 20.3376 1.80866 19.12 2.41024 18.0407C3.01183 16.9615 3.88088 16.0574 4.93279 15.4164L26.5794 2.48406C27.6135 1.86324 28.7952 1.53546 29.9994 1.53546C31.2036 1.53546 32.3853 1.86324 33.4194 2.48406L55.0486 15.4162C55.9295 15.953 56.6834 16.6769 57.2576 17.5372C57.8318 18.3975 58.2125 19.3735 58.3732 20.3971C57.6535 18.8575 56.0367 18.4344 54.1513 19.5249L33.6881 32.278C31.1351 33.7742 29.254 35.4623 29.2497 38.5589V63.9523C29.2497 65.8058 29.9908 67.0053 31.1351 67.3586C30.7604 67.4278 30.3804 67.4643 29.9994 67.4678C28.7956 67.4669 27.6143 67.1399 26.5794 66.5212Z" fill="#2F3A3E"/>
<path d="M50.0912 49.8795L44.711 53.1173C44.6405 53.1459 44.5797 53.1944 44.536 53.2569C44.4922 53.3195 44.4674 53.3935 44.4646 53.4699V54.893C44.4646 55.0671 44.5811 55.1367 44.7238 55.0539L50.1865 51.7117C50.252 51.6622 50.3022 51.5951 50.3313 51.518C50.3603 51.441 50.3671 51.3572 50.3507 51.2764V50.0274C50.3464 49.8663 50.2211 49.797 50.0912 49.8795Z" fill="#3AB14A"/>
<path d="M38.6419 37.9586C38.8149 37.8716 38.9577 37.9586 38.962 38.2066L38.9791 40.0955C39.6261 39.7996 40.3479 39.7115 41.0464 39.8429C41.1806 39.878 41.2366 40.0607 41.1849 40.2782L40.774 41.9364C40.7429 42.0615 40.6786 42.1758 40.5881 42.2671C40.5563 42.2986 40.5198 42.325 40.4799 42.3452C40.4311 42.3719 40.3747 42.3812 40.32 42.3717C39.6389 42.2198 38.9258 42.3349 38.3261 42.6935C37.8963 42.8883 37.53 43.2011 37.2691 43.5961C37.0082 43.9911 36.8634 44.4522 36.8513 44.9263C36.8513 45.7966 37.2838 46.0359 38.7932 46.0621C40.7871 46.0971 41.6521 46.9717 41.6737 48.9954C41.6503 50.0391 41.4014 51.0651 40.9443 52.0023C40.4872 52.9394 39.8329 53.7652 39.0268 54.4224L39.0616 56.2762C39.0601 56.3896 39.0304 56.5009 38.9752 56.5997C38.92 56.6986 38.841 56.782 38.7455 56.8423L37.6559 57.473C37.4829 57.56 37.3398 57.473 37.3358 57.2293V55.4059C36.4015 55.7975 35.4544 55.8889 34.8488 55.6453C34.7363 55.6016 34.6846 55.4321 34.732 55.2361L35.1257 53.5607C35.1556 53.4281 35.2232 53.3071 35.3202 53.2125C35.351 53.1828 35.3861 53.1578 35.4241 53.1384C35.452 53.1257 35.4822 53.1192 35.5128 53.1192C35.5433 53.1192 35.5736 53.1257 35.6014 53.1384C36.3723 53.3486 37.1946 53.244 37.8892 52.847C38.381 52.6084 38.7985 52.2389 39.0967 51.7787C39.3948 51.3184 39.5621 50.7848 39.5804 50.2358C39.5804 49.2956 39.0656 48.904 37.8504 48.8951C36.2804 48.8951 34.8228 48.5906 34.7925 46.2839C34.8103 45.2887 35.0468 44.3098 35.485 43.4174C35.9232 42.525 36.5522 41.7413 37.327 41.1224L37.2493 39.2249C37.249 39.1101 37.2778 38.9971 37.333 38.8966C37.3882 38.7962 37.468 38.7115 37.5648 38.6508L38.6419 37.9586Z" fill="white"/>
</g>
<defs>
<clipPath id="clip0_3_149">
<rect width="60" height="69" fill="white"/>
</clipPath>
</defs>
</svg>
