<svg width="54" height="49" viewBox="0 0 54 49" fill="none" xmlns="http://www.w3.org/2000/svg">
<g clip-path="url(#clip0_3_121)">
<path d="M33.3239 30.3559L32.2882 32.1726C32.1349 32.4414 31.9141 32.6647 31.6482 32.8199C31.3822 32.9752 31.0804 33.0569 30.7733 33.0569H22.8382C22.531 33.0569 22.2293 32.9752 21.9633 32.8199C21.6973 32.6647 21.4766 32.4414 21.3233 32.1726L20.2873 30.3559H33.3239ZM36.2237 25.2706L34.3974 28.4735H19.2141L17.3878 25.2706H36.2237ZM34.4644 20.2977L36.2266 23.3881H17.3848L19.147 20.2977H34.4644ZM30.773 15.5967C31.0803 15.5967 31.3821 15.6784 31.6481 15.8336C31.9141 15.9889 32.1349 16.2122 32.2882 16.481L33.391 18.4153H20.2205L21.3235 16.481C21.4768 16.2122 21.6976 15.9889 21.9635 15.8337C22.2295 15.6784 22.5312 15.5967 22.8384 15.5967H30.7733H30.773Z" fill="#00435B"/>
<path d="M11.29 14.7535C10.411 10.4487 10.2222 7.14699 10.7905 4.74961C11.1284 3.32371 11.746 2.1605 12.6855 1.3211C13.6774 0.435056 14.9312 0.000234274 16.3402 0.000234274C18.6643 0.000234274 21.1078 1.07078 23.7188 3.10428C24.7841 3.93387 25.8894 4.93368 27.0373 6.10436C27.1288 5.98569 27.232 5.87363 27.3472 5.76988C30.5927 2.84905 33.3251 1.03392 35.6623 0.334286C37.052 -0.0820005 38.3566 -0.121627 39.5446 0.282304C40.7989 0.708391 41.7981 1.58975 42.5032 2.82391C43.6668 4.86082 43.9735 7.53729 43.5398 10.8422C43.363 12.1893 43.0607 13.6565 42.6336 15.2465C42.7948 15.2661 42.9563 15.3023 43.1162 15.3558C47.2339 16.7342 50.1499 18.2161 51.9153 19.91C52.9657 20.9177 53.6515 22.0396 53.8996 23.2816C54.1611 24.5925 53.9059 25.9072 53.2018 27.1405C52.0404 29.1746 49.9048 30.7786 46.8627 32.0492C45.6414 32.5595 44.2591 33.0215 42.7148 33.4372C42.7853 33.5978 42.8401 33.7685 42.8766 33.9474C43.7556 38.2522 43.9442 41.5539 43.3761 43.9513C43.0382 45.3772 42.4203 46.5404 41.4808 47.3798C40.4892 48.2659 39.2352 48.7007 37.8263 48.7007C35.502 48.7007 33.0587 47.6301 30.4477 45.5966C29.3711 44.7581 28.2536 43.7459 27.0924 42.5591C26.9701 42.752 26.8222 42.9271 26.6528 43.0793C23.4073 46.0006 20.6748 47.8153 18.3376 48.5151C16.9479 48.9314 15.6433 48.971 14.4553 48.5671C13.2011 48.141 12.2019 47.2597 11.4967 46.0255C10.3332 43.9886 10.0265 41.3121 10.4601 38.0072C10.6434 36.6115 10.9613 35.0866 11.4132 33.43C11.2331 33.4115 11.0555 33.3731 10.8837 33.3155C6.766 31.9372 3.85 30.4552 2.08466 28.7613C1.03419 27.7536 0.348433 26.6317 0.10037 25.3897C-0.161192 24.0788 0.0940422 22.7639 0.798152 21.5306C1.95957 19.4967 4.0951 17.8925 7.13725 16.6221C8.39507 16.0965 9.82332 15.6223 11.4235 15.1971C11.3656 15.0537 11.3209 14.9052 11.29 14.7535Z" fill="#002B3B"/>
<path d="M40.0037 34.3709C40.2002 34.3358 40.4026 34.3783 40.5689 34.4898C40.7352 34.6012 40.8527 34.773 40.897 34.9696L40.9018 34.9935L40.9455 35.2225C42.3609 42.7378 41.3638 46.4957 37.9544 46.4957C34.6189 46.4957 30.3725 43.2892 25.2155 36.8761C25.1239 36.7621 25.0657 36.6245 25.0477 36.4788C25.0297 36.3331 25.0524 36.1853 25.1135 36.052C25.1745 35.9188 25.2713 35.8055 25.3928 35.725C25.5144 35.6445 25.6559 35.6001 25.8012 35.5968H25.8253L26.097 35.5987C28.2671 35.6106 30.3767 35.5342 32.4259 35.3695C34.8448 35.175 37.3707 34.8422 40.0037 34.3709ZM16.5894 28.6899L16.6025 28.7123L16.7387 28.9524C17.8308 30.8698 18.9683 32.6896 20.1517 34.4121C21.5456 36.4402 23.1128 38.4936 24.8535 40.572C24.9827 40.7263 25.048 40.9249 25.0359 41.1265C25.0237 41.3282 24.9351 41.5174 24.7883 41.6547L24.7687 41.6724L24.5936 41.8247C18.8336 46.8093 15.0898 47.8044 13.3625 44.8099C11.6714 41.879 12.2846 36.5495 15.2016 28.8216C15.2533 28.6847 15.3418 28.5651 15.4573 28.4764C15.5728 28.3877 15.7105 28.3334 15.855 28.3197C15.9994 28.306 16.1447 28.3334 16.2745 28.3989C16.4043 28.4643 16.5134 28.5651 16.5894 28.6899ZM42.9264 17.6002L42.95 17.608L43.1669 17.6835C50.2765 20.1814 52.9776 22.9265 51.2703 25.9187C49.6005 28.845 44.746 30.9759 36.7069 32.3108C36.5612 32.335 36.4117 32.3168 36.2759 32.2583C36.1401 32.1998 36.0236 32.1034 35.9401 31.9804C35.8565 31.8574 35.8095 31.7129 35.8043 31.5639C35.7992 31.4149 35.8362 31.2674 35.9111 31.1389C37.0624 29.1605 38.0995 27.1924 39.0222 25.2339C40.0684 23.013 41.0503 20.6288 41.9679 18.0821C42.0346 17.897 42.1677 17.7439 42.3409 17.6533C42.5141 17.5628 42.7146 17.5413 42.9028 17.5931L42.9264 17.6002ZM17.8128 16.3426C17.9008 16.3948 17.9778 16.464 18.0393 16.5462C18.1008 16.6284 18.1456 16.7221 18.1713 16.8218C18.197 16.9216 18.2029 17.0255 18.1888 17.1275C18.1747 17.2296 18.1409 17.3279 18.0892 17.4167C16.9374 19.3948 15.9005 21.3631 14.9778 23.3217C13.9316 25.5426 12.9497 27.9266 12.0321 30.4735C11.964 30.6627 11.8265 30.8181 11.6481 30.9078C11.4697 30.9975 11.2641 31.0145 11.0736 30.9554L11.05 30.9476L10.8331 30.8719C3.72347 28.3742 1.02241 25.6289 2.72974 22.6369C4.39952 19.7104 9.25404 17.5797 17.2931 16.2448C17.4724 16.215 17.6563 16.2495 17.8128 16.3426ZM40.6375 4.03973C42.3286 6.97078 41.7154 12.3003 38.7984 20.0282C38.7467 20.1651 38.6582 20.2847 38.5427 20.3734C38.4272 20.4621 38.2895 20.5164 38.145 20.5301C38.0006 20.5438 37.8553 20.5164 37.7255 20.4509C37.5957 20.3855 37.4866 20.2847 37.4106 20.1599L37.3975 20.1375L37.2613 19.8974C36.1692 17.98 35.0317 16.1602 33.8483 14.4377C32.4544 12.4096 30.8872 10.3563 29.1465 8.2778C29.0173 8.12356 28.952 7.92493 28.9641 7.72326C28.9762 7.52159 29.0649 7.33242 29.2117 7.19512L29.2313 7.17743L29.4064 7.02511C35.1664 2.04053 38.9102 1.0454 40.6375 4.03973ZM16.3371 2.25613C19.6729 2.25613 23.9193 5.46244 29.076 11.8755C29.1677 11.9895 29.2258 12.1271 29.2438 12.2728C29.2619 12.4185 29.2391 12.5663 29.1781 12.6996C29.117 12.8328 29.0202 12.9461 28.8987 13.0266C28.7771 13.1071 28.6356 13.1515 28.4903 13.1548H28.4662L28.1945 13.1531C26.0246 13.1412 23.9148 13.2176 21.8658 13.3823C19.4467 13.5768 16.9208 13.9096 14.2879 14.3809C14.0914 14.416 13.889 14.3734 13.7227 14.262C13.5565 14.1505 13.439 13.9787 13.3947 13.7822L13.3897 13.7581L13.346 13.5293C11.9306 6.01379 12.9275 2.25613 16.3371 2.25613Z" fill="#FF4154"/>
<path d="M23.4763 15.6949H30.1369C30.6154 15.6949 31.0855 15.8224 31.4996 16.0646C31.9137 16.3068 32.2572 16.6552 32.4953 17.0744L35.8398 22.9599C36.0762 23.376 36.2006 23.8473 36.2006 24.327C36.2006 24.8067 36.0762 25.2781 35.8398 25.6941L32.4953 31.5797C32.2572 31.9988 31.9137 32.3471 31.4996 32.5893C31.0854 32.8315 30.6154 32.9591 30.1369 32.9591H23.4763C22.5022 32.9591 21.6025 32.4329 21.1176 31.5797L17.7736 25.6941C17.5372 25.2781 17.4128 24.8067 17.4128 24.327C17.4128 23.8473 17.5372 23.376 17.7736 22.9599L21.1178 17.0744C21.356 16.6552 21.6995 16.3069 22.1137 16.0646C22.5278 15.8224 22.9977 15.6949 23.4763 15.6949ZM29.1216 17.4713C30.0961 17.4713 30.9964 17.9981 31.4809 18.852L33.8131 22.9612C34.049 23.3769 34.1732 23.8478 34.1732 24.327C34.1732 24.8062 34.049 25.2771 33.8131 25.6928L31.4809 29.802C31.2428 30.2215 30.8992 30.5701 30.485 30.8125C30.0707 31.0549 29.6004 31.1826 29.1216 31.1825H24.4915C23.517 31.1825 22.6167 30.6559 22.1322 29.802L19.8001 25.6928C19.5641 25.2771 19.44 24.8062 19.44 24.327C19.44 23.8478 19.5641 23.3769 19.8001 22.9612L22.1322 18.852C22.3703 18.4325 22.7138 18.084 23.1281 17.8416C23.5423 17.5992 24.0126 17.4715 24.4913 17.4715L29.1216 17.4713ZM28.0275 19.4142H25.5857C25.1073 19.4142 24.6374 19.5416 24.2234 19.7837C23.8094 20.0257 23.4659 20.3737 23.2276 20.7926L21.9953 22.9586C21.7584 23.375 21.6338 23.8468 21.6338 24.327C21.6338 24.8072 21.7584 25.279 21.9953 25.6954L23.2276 27.8616C23.4659 28.2805 23.8094 28.6286 24.2234 28.8706C24.6374 29.1126 25.1073 29.24 25.5857 29.24H28.0275C29.0012 29.24 29.9006 28.7142 30.3855 27.8616L31.6178 25.6954C31.8547 25.279 31.9794 24.8072 31.9794 24.327C31.9794 23.8468 31.8547 23.375 31.6178 22.9586L30.3855 20.7924C30.1473 20.3735 29.8038 20.0255 29.3898 19.7834C28.9757 19.5414 28.5058 19.4142 28.0275 19.4142ZM26.9741 21.2739C27.9469 21.2739 28.8457 21.7988 29.3309 22.6501L29.5057 22.9569C29.7432 23.3737 29.8682 23.8461 29.8682 24.327C29.8682 24.8079 29.7432 25.2803 29.5057 25.6971L29.3309 26.0039C29.0924 26.4222 28.749 26.7697 28.3352 27.0113C27.9215 27.2529 27.452 27.3801 26.9741 27.3801H26.6391C26.1611 27.3801 25.6916 27.2529 25.2779 27.0113C24.8641 26.7697 24.5207 26.4222 24.2823 26.0039L24.1074 25.6971C23.8699 25.2803 23.7449 24.8079 23.7449 24.327C23.7449 23.8461 23.8699 23.3737 24.1074 22.9569L24.2823 22.6501C24.5207 22.2318 24.8641 21.8843 25.2779 21.6427C25.6916 21.4011 26.1611 21.2739 26.6391 21.2739H26.9741ZM26.807 23.1058C26.5946 23.1058 26.3859 23.1621 26.2018 23.2693C26.0178 23.3765 25.865 23.5307 25.7586 23.7164C25.6524 23.902 25.5965 24.1126 25.5965 24.327C25.5965 24.5414 25.6524 24.752 25.7586 24.9376C25.8649 25.1234 26.0177 25.2776 26.2016 25.3848C26.3856 25.4921 26.5943 25.5485 26.8067 25.5485C27.0191 25.5485 27.2278 25.4921 27.4117 25.3848C27.5957 25.2776 27.7485 25.1234 27.8547 24.9376C27.9609 24.752 28.0168 24.5414 28.0168 24.327C28.0168 24.1126 27.9609 23.902 27.8547 23.7164C27.7485 23.5308 27.5957 23.3766 27.4118 23.2694C27.2279 23.1622 27.0193 23.1058 26.807 23.1058ZM16.9965 24.327H19.1734Z" fill="#FFD94C"/>
</g>
<defs>
<clipPath id="clip0_3_121">
<rect width="54" height="49" fill="white"/>
</clipPath>
</defs>
</svg>
