<svg width="33" height="49" viewBox="0 0 33 49" fill="none" xmlns="http://www.w3.org/2000/svg">
<g clip-path="url(#clip0_3_132)">
<path d="M8.25 49C12.804 49 16.5 45.3413 16.5 40.8333V32.6667H8.25C3.696 32.6667 0 36.3253 0 40.8333C0 45.3413 3.696 49 8.25 49Z" fill="#0ACF83"/>
<path d="M0 24.5C0 19.992 3.696 16.3333 8.25 16.3333H16.5V32.6667H8.25C3.696 32.6667 0 29.008 0 24.5Z" fill="#A259FF"/>
<path d="M0 8.16667C0 3.65867 3.696 0 8.25 0H16.5V16.3333H8.25C3.696 16.3333 0 12.6747 0 8.16667Z" fill="#F24E1E"/>
<path d="M16.5 0H24.75C29.304 0 33 3.65867 33 8.16667C33 12.6747 29.304 16.3333 24.75 16.3333H16.5V0Z" fill="#FF7262"/>
<path d="M33 24.5C33 29.008 29.304 32.6667 24.75 32.6667C20.196 32.6667 16.5 29.008 16.5 24.5C16.5 19.992 20.196 16.3333 24.75 16.3333C29.304 16.3333 33 19.992 33 24.5Z" fill="#1ABCFE"/>
</g>
<defs>
<clipPath id="clip0_3_132">
<rect width="33" height="49" fill="white"/>
</clipPath>
</defs>
</svg>
