<svg width="50" height="51" viewBox="0 0 50 51" fill="none" xmlns="http://www.w3.org/2000/svg">
<g clip-path="url(#clip0_2_20)">
<path d="M24.7883 0.51413C12.1258 0.51413 12.9164 6.02687 12.9164 6.02687L12.9305 11.7382H25.0141V13.453H8.13106C8.13106 13.453 0.0283203 12.5304 0.0283203 25.3569C0.0283203 38.1837 7.10059 37.7288 7.10059 37.7288H11.3213V31.7767C11.3213 31.7767 11.0938 24.6767 18.2807 24.6767H30.2654C30.2654 24.6767 36.9988 24.7859 36.9988 18.1435V7.1608C36.9988 7.1608 38.0215 0.51413 24.7883 0.51413ZM18.1254 4.35491C18.4109 4.35466 18.6937 4.41093 18.9576 4.52051C19.2214 4.63009 19.4612 4.79083 19.6631 4.99353C19.865 5.19624 20.0251 5.43692 20.1343 5.70181C20.2434 5.9667 20.2995 6.2506 20.2992 6.53727C20.2995 6.82393 20.2434 7.10783 20.1343 7.37272C20.0251 7.63761 19.865 7.8783 19.6631 8.081C19.4612 8.2837 19.2214 8.44444 18.9576 8.55402C18.6937 8.66361 18.4109 8.71988 18.1254 8.71962C17.8398 8.71988 17.5571 8.66361 17.2932 8.55402C17.0293 8.44444 16.7896 8.2837 16.5877 8.081C16.3858 7.8783 16.2257 7.63761 16.1165 7.37272C16.0074 7.10783 15.9513 6.82393 15.9516 6.53727C15.9513 6.2506 16.0074 5.9667 16.1165 5.70181C16.2257 5.43692 16.3858 5.19624 16.5877 4.99353C16.7896 4.79083 17.0293 4.63009 17.2932 4.52051C17.5571 4.41093 17.8398 4.35466 18.1254 4.35491Z" fill="url(#paint0_linear_2_20)"/>
<path d="M25.1479 50.3286C37.8104 50.3286 37.0197 44.8159 37.0197 44.8159L37.0057 39.1047H24.9219V37.39H41.8049C41.8049 37.39 49.9076 38.3125 49.9076 25.4857C49.9076 12.659 42.8354 13.1139 42.8354 13.1139H38.6146V19.0659C38.6146 19.0659 38.8422 26.1659 31.6553 26.1659H19.6705C19.6705 26.1659 12.9371 26.0567 12.9371 32.6992V43.6822C12.9371 43.6822 11.9146 50.3286 25.1477 50.3286H25.1479ZM31.8107 46.4882C31.5252 46.4885 31.2424 46.4322 30.9786 46.3226C30.7147 46.2131 30.475 46.0523 30.273 45.8496C30.0711 45.6469 29.911 45.4062 29.8019 45.1413C29.6927 44.8764 29.6367 44.5925 29.6369 44.3059C29.6366 44.0192 29.6927 43.7353 29.8018 43.4704C29.9109 43.2054 30.0711 42.9647 30.273 42.762C30.4749 42.5593 30.7146 42.3985 30.9785 42.2889C31.2424 42.1794 31.5252 42.1231 31.8107 42.1233C32.0963 42.1231 32.3791 42.1793 32.6429 42.2889C32.9068 42.3985 33.1465 42.5592 33.3484 42.7619C33.5504 42.9647 33.7105 43.2053 33.8196 43.4702C33.9288 43.7351 33.9848 44.019 33.9846 44.3057C33.9848 44.5923 33.9288 44.8762 33.8196 45.1411C33.7105 45.406 33.5504 45.6467 33.3484 45.8494C33.1465 46.0521 32.9068 46.2129 32.6429 46.3224C32.3791 46.432 32.0963 46.4885 31.8107 46.4882Z" fill="url(#paint1_linear_2_20)"/>
</g>
<defs>
<linearGradient id="paint0_linear_2_20" x1="479.367" y1="448.566" x2="2960.81" y2="2895.66" gradientUnits="userSpaceOnUse">
<stop stop-color="#387EB8"/>
<stop offset="1" stop-color="#366994"/>
</linearGradient>
<linearGradient id="paint1_linear_2_20" x1="720.441" y1="778.994" x2="3384.74" y2="3287.81" gradientUnits="userSpaceOnUse">
<stop stop-color="#FFE052"/>
<stop offset="1" stop-color="#FFC331"/>
</linearGradient>
<clipPath id="clip0_2_20">
<rect width="50" height="50" fill="white" transform="translate(0 0.5)"/>
</clipPath>
</defs>
</svg>
