<svg width="55" height="65" viewBox="0 0 55 65" fill="none" xmlns="http://www.w3.org/2000/svg">
<g clip-path="url(#clip0_2_73)">
<path d="M6.13809 52.1031H10.8608V54.48H6.1383V59.8735C6.1288 60.2606 6.18234 60.6466 6.29686 61.0167C6.38357 61.2913 6.53772 61.5403 6.74545 61.7413C6.94564 61.9284 7.1891 62.0638 7.45443 62.1357C7.71977 62.2061 7.9924 62.2444 8.26654 62.25L8.38406 62.2504C8.63113 62.2504 8.88637 62.2504 9.14955 62.2159L9.30574 62.1967L9.60846 62.1626C9.7075 62.1511 9.80504 62.1385 9.90193 62.1225L10.0437 62.1001L10.3101 62.0609C10.3963 62.0482 10.4799 62.0345 10.5626 62.0185L10.7598 61.9793L10.8515 61.9601L11.0213 61.9226L11.0999 61.9041L11.417 64.1183C11.1618 64.2611 10.8915 64.3755 10.6109 64.4593C10.2932 64.5591 9.96935 64.6383 9.64133 64.6965C9.29758 64.7605 8.94008 64.8086 8.56668 64.8431C8.20323 64.877 7.83839 64.8939 7.47334 64.8939C6.83639 64.903 6.20193 64.8131 5.59303 64.6275C5.0504 64.4598 4.55526 64.1676 4.14777 63.7746C3.72794 63.3669 3.41124 62.8666 3.22352 62.3143C2.99005 61.6281 2.87918 60.9066 2.89588 60.1825V54.48H0V52.1031H2.88771V49.0307H6.1383L6.13809 52.1031ZM17.7139 58.3412V64.6513H14.428V47.765H20.1472C21.012 47.7543 21.874 47.8655 22.7073 48.0953C23.4187 48.2902 24.0855 48.6196 24.6709 49.0654C25.2094 49.4911 25.6362 50.0396 25.9149 50.6642C26.2207 51.3585 26.3709 52.1103 26.3553 52.8678C26.3625 53.4181 26.2893 53.9665 26.1379 54.496C25.8783 55.4165 25.3191 56.226 24.5474 56.7985C24.1547 57.0934 23.7294 57.3428 23.2796 57.5418L26.9384 64.51V64.662H23.4057L20.2039 58.3412H17.7139ZM17.7164 55.6926H20.1474C20.6044 55.7015 21.0592 55.6293 21.4906 55.4795C21.8516 55.3524 22.1755 55.1391 22.4338 54.8585C22.6349 54.6361 22.7891 54.376 22.8875 54.0936C22.9838 53.8042 23.0362 53.5022 23.0429 53.1979L23.0433 53.0837C23.0513 52.6784 22.982 52.2752 22.8392 51.8954C22.7108 51.5645 22.5002 51.2712 22.2269 51.0427C21.9637 50.832 21.6616 50.6745 21.3374 50.579C20.9902 50.4786 20.6312 50.4242 20.2696 50.417L17.7164 50.4163V55.6926ZM32.2925 64.6513H29.0125V47.765H34.8337C35.6888 47.753 36.5395 47.8883 37.348 48.1648C38.0542 48.4065 38.7058 48.7831 39.2661 49.2732C39.7875 49.7536 40.1996 50.3386 40.4751 50.9894C40.7484 51.6471 40.8933 52.3502 40.9022 53.0615V53.2037C40.9097 53.9256 40.7642 54.641 40.4751 55.3035C40.1969 55.9358 39.7846 56.5011 39.2661 56.9609C38.7039 57.4513 38.0493 57.8263 37.3401 58.0642C36.5308 58.3375 35.6803 58.4709 34.8255 58.4584H32.2897L32.2925 64.6513ZM32.2925 55.8152H34.8283C35.2438 55.8235 35.657 55.752 36.0452 55.6046C36.3706 55.478 36.6653 55.2846 36.9102 55.0371C37.135 54.7983 37.3078 54.5162 37.418 54.2083C37.5319 53.8937 37.5899 53.5619 37.5899 53.2278C37.5924 52.8541 37.5344 52.4826 37.418 52.1272C37.3118 51.7976 37.139 51.493 36.9102 51.2317C36.6686 50.972 36.3736 50.7667 36.0452 50.6297C35.6589 50.4747 35.2449 50.3994 34.8283 50.4085H32.2925V55.8152ZM54.4304 61.6588C54.1296 62.3172 53.6984 62.909 53.1624 63.3989C52.6113 63.889 51.9676 64.2658 51.2686 64.5075C50.5382 64.7557 49.7723 64.8862 49.0003 64.8941L48.8348 64.8939C48.1768 64.9016 47.5212 64.8119 46.8899 64.6275C46.3126 64.4565 45.768 64.1917 45.2781 63.8439C44.8349 63.5206 44.4428 63.1335 44.1149 62.6954C43.7697 62.2365 43.4812 61.7382 43.2554 61.2112C43.0199 60.6358 42.8462 60.0373 42.7369 59.4258C42.6128 58.7444 42.5516 58.0531 42.5541 57.3607V55.0876C42.5527 54.4366 42.6075 53.7867 42.718 53.1451C42.809 52.6244 42.9492 52.1135 43.137 51.619L43.2096 51.4344C43.4471 50.8159 43.7787 50.2371 44.1929 49.7182C44.5852 49.2274 45.0498 48.7981 45.5709 48.4446C46.0392 48.1448 46.5498 47.9158 47.086 47.765C47.609 47.6172 48.1493 47.5376 48.693 47.5284L48.8563 47.5278C49.7051 47.5133 50.5497 47.6468 51.352 47.9221C52.0463 48.1587 52.6811 48.5412 53.2128 49.0434C53.7446 49.5457 54.1609 50.1558 54.4332 50.8321C54.7423 51.5911 54.9316 52.3928 54.9946 53.209H51.7226C51.7032 52.7572 51.6276 52.3097 51.497 51.8766C51.3916 51.5272 51.2142 51.2033 50.976 50.9255C50.7343 50.6729 50.4361 50.4802 50.1054 50.3631C49.7046 50.2268 49.2827 50.1618 48.8591 50.1713C48.6167 50.1704 48.375 50.1982 48.1392 50.254C47.9243 50.3057 47.7183 50.3874 47.5267 50.4963C47.198 50.6958 46.9218 50.9698 46.7208 51.2959C46.4856 51.6694 46.3047 52.074 46.1835 52.4976C46.0774 52.8835 46.0038 53.2774 45.9632 53.6753C45.9142 54.1355 45.8909 54.5982 45.8934 55.061V57.3554C45.888 57.9585 45.9248 58.5613 46.0034 59.1594C46.0635 59.6329 46.1789 60.0979 46.3472 60.5451C46.4483 60.7996 46.5801 61.0412 46.7395 61.2645C46.8828 61.4691 47.0589 61.649 47.2607 61.7973C47.473 61.9531 47.7125 62.0687 47.9671 62.1383C48.2505 62.2161 48.5436 62.2538 48.8376 62.2504C49.2297 62.255 49.6201 62.2002 49.9954 62.0878C50.3243 61.9873 50.625 61.8122 50.8737 61.5763C51.1291 61.3246 51.3247 61.0196 51.4461 60.6834C51.6013 60.2623 51.6919 59.8205 51.7146 59.3727H55C54.9526 60.1628 54.7597 60.9377 54.4307 61.6588H54.4304ZM40.0426 19.6922L48.3111 24.4276V33.9031L40.0426 38.6386L36.372 36.5328L27.4463 41.6441L18.5741 36.562L14.9548 38.6383L6.68637 33.8953V24.4272L14.9548 19.692L23.2233 24.4274V33.8951L20.7219 35.33L27.4463 39.1818L34.2242 35.3005L31.7739 33.8951V24.4272L40.0426 19.6922ZM33.923 26.8951V32.6748L38.9679 35.5635V29.7839L33.923 26.8951ZM46.162 26.8872L41.117 29.7758V35.5635L46.162 32.6669V26.8872ZM8.83545 26.8872V32.6669L13.8802 35.5554V29.7758L8.83545 26.8872ZM21.0742 26.8872L16.0295 29.7755V35.5552L21.0745 32.6667V26.887L21.0742 26.8872ZM40.0426 22.1599L34.9976 25.0484L40.0426 27.9398L45.0873 25.0484L40.0426 22.1599ZM14.9548 22.152L9.90988 25.0484L14.9548 27.9319L19.9998 25.0484L14.9548 22.152ZM19.0676 7.46413V9.92348L11.417 14.3072V21.7177L9.26793 22.9488V13.0757L19.0674 7.46392L19.0676 7.46413ZM27.3361 0L35.6101 4.7352V7.33925L45.6246 13.0757V22.8872L43.4756 21.6561V14.3068L35.6101 9.80136V14.2056L27.3414 18.9408L19.073 14.2056V4.7352L27.3361 0ZM21.2223 7.19475V12.9744L26.2619 15.863V10.0859L21.2223 7.19475ZM33.4559 7.19475L28.4163 10.0859V15.8604L33.4555 12.9744V7.19475H33.4559ZM27.3363 2.46211L22.2965 5.35067L27.3361 8.23923L32.381 5.35067L27.3363 2.46211Z" fill="#398CCB"/>
</g>
<defs>
<clipPath id="clip0_2_73">
<rect width="55" height="65" fill="white"/>
</clipPath>
</defs>
</svg>
