<svg width="42" height="55" viewBox="0 0 42 55" fill="none" xmlns="http://www.w3.org/2000/svg">
<g clip-path="url(#clip0_3_142)">
<path d="M41.8832 27.6317C41.8832 26.9878 41.412 26.6165 40.8337 26.8009L1.04951 39.5395C0.470039 39.7252 0 40.3985 0 41.0413V54.0607C0 54.7046 0.470039 55.077 1.04951 54.8915L40.8337 42.154C41.412 41.9685 41.8832 41.2951 41.8832 40.6513V27.6319V27.6317Z" fill="url(#paint0_linear_3_142)"/>
<path d="M0 27.2169C0 27.8608 0.470039 28.5339 1.04951 28.7196L40.8396 41.4594C41.4189 41.6449 41.8891 41.2727 41.8891 40.6299V27.6093C41.8891 26.9666 41.4189 26.2933 40.8396 26.1078L1.04951 13.368C0.470039 13.1824 0 13.5535 0 14.1973V27.2167V27.2169Z" fill="#FF9800"/>
<path d="M41.8832 0.878377C41.8832 0.234612 41.412 -0.137964 40.8337 0.0477442L1.04951 12.7852C0.470039 12.9708 0 13.644 0 14.2879V27.3074C0 27.9513 0.470039 28.3225 1.04951 28.138L40.8337 15.3994C41.412 15.2138 41.8832 14.5406 41.8832 13.8978V0.878377Z" fill="#FF9800"/>
</g>
<defs>
<linearGradient id="paint0_linear_3_142" x1="2308.48" y1="1680.68" x2="2487.29" y2="1088.51" gradientUnits="userSpaceOnUse">
<stop stop-color="#FF9700"/>
<stop offset="0.53" stop-color="#F48E00"/>
<stop offset="1" stop-color="#D06F00"/>
</linearGradient>
<clipPath id="clip0_3_142">
<rect width="42" height="55" fill="white"/>
</clipPath>
</defs>
</svg>
