<svg width="61" height="29" viewBox="0 0 61 29" fill="none" xmlns="http://www.w3.org/2000/svg">
<g clip-path="url(#clip0_2_57)">
<path d="M3.41898 6.9622V9.00787H3.50833C3.68645 8.72325 3.91937 8.43288 4.20686 8.13786C4.49398 7.8426 4.84616 7.57818 5.26244 7.34361C5.67872 7.11038 6.14932 6.91656 6.67485 6.76361C7.19955 6.61114 7.78977 6.5343 8.44373 6.5343C9.45476 6.5343 10.3862 6.73314 11.2385 7.12984C12.0907 7.52752 12.8244 8.07203 13.4391 8.76387C14.0531 9.4562 14.5288 10.2707 14.866 11.2067C15.2029 12.1433 15.3715 13.1511 15.3715 14.2299C15.3715 15.3087 15.2079 16.3216 14.8807 17.2682C14.554 18.2148 14.0875 19.0391 13.4834 19.7414C12.8785 20.4438 12.1456 21.0044 11.2832 21.4208C10.4208 21.838 9.44428 22.0466 8.3545 22.0466C7.34347 22.0466 6.4168 21.8328 5.57459 21.4057C4.73167 20.978 4.08295 20.3983 3.62712 19.6647H3.5679V28.9478H0V6.9622H3.41898ZM11.7442 14.2296C11.7442 13.6595 11.6597 13.0945 11.4914 12.5346C11.3225 11.975 11.07 11.4713 10.733 11.0231C10.3959 10.5759 9.97005 10.2142 9.45452 9.93917C8.939 9.66446 8.3346 9.52705 7.64108 9.52705C6.98688 9.52705 6.4019 9.6696 5.88686 9.95471C5.37134 10.2398 4.93016 10.6067 4.5638 11.0538C4.19673 11.5019 3.91949 12.0109 3.73125 12.5809C3.54253 13.1511 3.44888 13.7214 3.44888 14.291C3.44888 14.8612 3.54253 15.4262 3.73125 15.9855C3.91949 16.5459 4.19673 17.0494 4.5638 17.4975C4.9304 17.9451 5.37134 18.3068 5.88686 18.581C6.4019 18.8562 6.98688 18.993 7.64108 18.993C8.3346 18.993 8.939 18.8511 9.4544 18.566C9.96981 18.2808 10.3959 17.9145 10.733 17.4663C11.07 17.0188 11.3225 16.5098 11.4914 15.9397C11.6597 15.3695 11.7442 14.7995 11.7442 14.2296ZM46.5213 6.26192V22.5047C46.5213 23.38 46.4517 24.2097 46.3131 24.9934C46.1739 25.7771 45.9119 26.4589 45.5252 27.0395C45.1389 27.6201 44.6132 28.0825 43.9492 28.4288C43.2849 28.7751 42.4182 28.9478 41.3476 28.9478C41.0505 28.9478 40.7531 28.9273 40.4556 28.8869C40.1585 28.8459 39.9207 28.8051 39.7421 28.7645L40.0397 25.6497C40.2059 25.6919 40.3747 25.7226 40.5449 25.7415C40.7236 25.7614 40.8817 25.7719 41.0206 25.7719C41.4365 25.7719 41.7736 25.6906 42.0315 25.5277C42.2887 25.3642 42.4872 25.1404 42.6264 24.8558C42.7646 24.5706 42.8539 24.2398 42.8938 23.8631C42.9332 23.4863 42.9532 23.0849 42.9532 22.6572V6.26192H46.5212H46.5213ZM37.6126 16.2438V18.5189L39.7373 17.8602L40.1547 19.179L38.0385 19.9202L39.3521 21.8333L38.2446 22.6584L36.8618 20.7791L35.515 22.6089L34.4394 21.7676L35.7531 19.9202L33.6205 19.1298L34.0382 17.8102L36.1797 18.5189V16.2437H37.6127L37.6126 16.2438ZM58.6815 10.8707C58.3641 10.4431 57.9283 10.0721 57.3732 9.75636C56.818 9.44066 56.2138 9.28281 55.5596 9.28281C54.9845 9.28281 54.4598 9.40518 53.9842 9.64941C53.508 9.89316 53.2706 10.3009 53.2706 10.8707C53.2706 11.4406 53.5329 11.8435 54.0582 12.0767C54.5833 12.3111 55.3518 12.5504 56.3627 12.7946C56.9124 12.9215 57.4536 13.0847 57.9829 13.2832C58.5282 13.4865 59.0238 13.7563 59.4698 14.0924C59.9153 14.4279 60.2772 14.8457 60.5549 15.3444C60.832 15.8434 60.9713 16.4488 60.9713 17.1614C60.9713 18.0576 60.8074 18.816 60.4804 19.4364C60.1536 20.0575 59.7173 20.5612 59.172 20.948C58.6266 21.3347 57.9925 21.6149 57.2691 21.7877C56.5455 21.9606 55.7977 22.0471 55.0244 22.0471C53.914 22.0471 52.8341 21.8383 51.7834 21.4212C50.7328 21.0046 49.8606 20.4085 49.1671 19.6354L51.5159 17.3754C51.9124 17.9049 52.4274 18.3426 53.0623 18.6884C53.6964 19.0346 54.3997 19.2072 55.1733 19.2072C55.4305 19.2072 55.6932 19.1773 55.9612 19.1159C56.2287 19.0551 56.4762 18.9587 56.7043 18.8261C56.928 18.6976 57.1171 18.514 57.2545 18.2917C57.3927 18.0672 57.4621 17.7932 57.4621 17.4668C57.4621 16.8557 57.1896 16.4187 56.6451 16.1539C56.0994 15.8892 55.2816 15.6245 54.1921 15.36C53.6616 15.2393 53.1398 15.0811 52.6306 14.8864C52.1255 14.693 51.6744 14.4387 51.2779 14.1231C50.8809 13.8074 50.5645 13.4161 50.3265 12.9471C50.0887 12.4791 49.9695 11.8989 49.9695 11.2066C49.9695 10.3923 50.1328 9.69041 50.4603 9.10013C50.787 8.50911 51.2187 8.02664 51.7535 7.6489C52.2884 7.27264 52.8931 6.99255 53.5673 6.80974C54.2409 6.62619 54.935 6.53442 55.6484 6.53442C56.6787 6.53442 57.685 6.71797 58.6659 7.08383C59.6468 7.45068 60.4246 8.01085 61 8.76363L58.6815 10.8707ZM30.2728 11.6186C29.9058 10.7743 29.3959 10.0615 28.7417 9.48117C28.0876 8.90117 27.3194 8.45821 26.4375 8.15292C25.5553 7.84787 24.5988 7.69491 23.5686 7.69491C23.1918 7.69491 22.7706 7.71584 22.3049 7.75573C21.8391 7.79721 21.4378 7.86806 21.1009 7.97011L21.3088 3.29768H29.9014V0H17.9195L17.5626 11.8167C17.8792 11.6543 18.2413 11.5016 18.6477 11.3587C19.0539 11.2168 19.47 11.0894 19.8962 10.9775C20.3271 10.8648 20.764 10.778 21.2048 10.7176C21.6507 10.6568 22.0716 10.6264 22.4684 10.6264C23.0429 10.6264 23.608 10.6924 24.163 10.8246C24.7179 10.9571 25.2184 11.1914 25.6644 11.527C26.1104 11.8625 26.4717 12.3058 26.7497 12.8552C27.0268 13.4046 27.1658 14.0969 27.1658 14.9317C27.1658 15.5832 27.0617 16.1687 26.8536 16.6876C26.6456 17.2061 26.363 17.6392 26.0065 17.9848C25.6494 18.3314 25.2336 18.5959 24.7574 18.7787C24.2818 18.9626 23.7765 19.054 23.2411 19.054C22.29 19.054 21.467 18.7941 20.7734 18.2751C20.0794 17.7562 19.5843 17.0691 19.2867 16.2139L19.247 16.229L16.6652 18.7138C17.1873 19.5885 17.8605 20.3202 18.6922 20.9013C19.901 21.7456 21.3875 22.1687 23.1521 22.1687C24.2026 22.1687 25.1935 21.9952 26.1252 21.6497C27.0565 21.3039 27.8694 20.8049 28.5631 20.1529C29.2566 19.5019 29.8068 18.7028 30.2135 17.7562C30.6194 16.8096 30.8226 15.7361 30.8226 14.5345C30.8229 13.4352 30.6396 12.4638 30.2728 11.6186Z" fill="#ED225D"/>
</g>
<defs>
<clipPath id="clip0_2_57">
<rect width="61" height="29" fill="white"/>
</clipPath>
</defs>
</svg>
