<svg width="61" height="73" viewBox="0 0 61 73" fill="none" xmlns="http://www.w3.org/2000/svg">
<g clip-path="url(#clip0_3_146)">
<path d="M51.5474 66.3215V46.8201H57.9698V72.794H0V46.8201H6.42263V66.3215H51.5474Z" fill="#BCBBBB"/>
<path d="M13.5125 44.9709L45.0414 51.6115L46.3757 45.223L14.8473 38.5824L13.5125 44.9709ZM17.6829 29.8404L46.8764 43.5419L49.5456 37.6579L20.3521 23.8724L17.6829 29.8404ZM25.7737 15.3826L50.5464 36.1448L54.6334 31.1854L29.8607 10.4232L25.7737 15.3826ZM41.7886 0L36.6167 3.8666L55.8009 29.9245L60.9724 26.0579L41.7886 0ZM12.8448 59.7649H45.0411V53.2924H12.845V59.7649H12.8448Z" fill="#F48023"/>
</g>
<defs>
<clipPath id="clip0_3_146">
<rect width="61" height="73" fill="white"/>
</clipPath>
</defs>
</svg>
