<svg width="60" height="65" viewBox="0 0 60 65" fill="none" xmlns="http://www.w3.org/2000/svg">
<g clip-path="url(#clip0_2_66)">
<path d="M34.1545 9.97892V19.959L51.2313 29.9391V19.959L34.1548 9.97892H34.1545ZM0 19.959V29.9391L8.53828 34.928V24.9491L0 19.959ZM25.6151 24.9491L17.0768 29.9389V59.8769L25.6151 64.8669V44.9079L34.1545 49.8979V39.9178L25.6151 34.928V24.9491Z" fill="#E55B2D"/>
<path d="M34.1545 9.97892L8.53828 24.9491V34.928L25.6151 24.9491V34.928L34.1545 29.9391V9.97892ZM59.7708 14.969L51.2313 19.959V29.9391L59.7708 24.9491V14.969ZM42.693 34.928L34.1548 39.9181V49.8982L42.693 44.9079V34.9278V34.928ZM34.1548 49.8982L25.6151 44.9079V64.8669L34.1545 59.8769V49.8982H34.1548Z" fill="#ED8E24"/>
<path d="M34.1545 0L0 19.959L8.53828 24.9491L34.1545 9.97892L51.2313 19.959L59.7708 14.969L34.1545 0ZM34.1545 29.9389L25.6151 34.9278L34.1545 39.9181L42.6928 34.928L34.1545 29.9389Z" fill="#F8BF3C"/>
</g>
<defs>
<clipPath id="clip0_2_66">
<rect width="60" height="65" fill="white"/>
</clipPath>
</defs>
</svg>
