<svg width="58" height="58" viewBox="0 0 58 58" fill="none" xmlns="http://www.w3.org/2000/svg">
<g clip-path="url(#clip0_2_42)">
<path d="M44.4062 0H13.5938C6.08613 0 0 6.08613 0 13.5938V44.4062C0 51.9139 6.08613 58 13.5938 58H44.4062C51.9139 58 58 51.9139 58 44.4062V13.5938C58 6.08613 51.9139 0 44.4062 0Z" fill="#677EEB"/>
<path fill-rule="evenodd" clip-rule="evenodd" d="M11.9303 37.4243C11.7174 37.0884 11.603 36.6996 11.6 36.3019C11.597 35.9043 11.7055 35.5138 11.9133 35.1747L27.8772 9.135C28.7651 7.68659 30.909 7.81324 31.6202 9.3559L46.2038 40.991C46.7448 42.1649 46.122 43.546 44.8839 43.9176L22.1981 50.7233C21.754 50.8565 21.2784 50.8409 20.8439 50.6787C20.4094 50.5166 20.0399 50.2168 19.7916 49.8252L11.9303 37.4243ZM29.7189 16.7489C29.8727 15.9826 30.9224 15.8721 31.2323 16.5896L41.2919 39.8666C41.3366 39.97 41.3589 40.0817 41.3573 40.1943C41.3558 40.3069 41.3303 40.4179 41.2827 40.52C41.2351 40.622 41.1664 40.7128 41.0811 40.7864C40.9959 40.86 40.896 40.9147 40.7881 40.9469L25.114 45.6258C24.5379 45.7978 23.986 45.2944 24.1044 44.7049L29.7189 16.7489Z" fill="#F7FAFC"/>
</g>
<defs>
<clipPath id="clip0_2_42">
<rect width="58" height="58" fill="white"/>
</clipPath>
</defs>
</svg>
