<svg width="58" height="57" viewBox="0 0 58 57" fill="none" xmlns="http://www.w3.org/2000/svg">
<g clip-path="url(#clip0_3_109)">
<path d="M44.4062 0H13.5938C6.08613 0 0 5.9812 0 13.3594V43.6406C0 51.0188 6.08613 57 13.5938 57H44.4062C51.9139 57 58 51.0188 58 43.6406V13.3594C58 5.9812 51.9139 0 44.4062 0Z" fill="#242938"/>
<path fill-rule="evenodd" clip-rule="evenodd" d="M18.8047 24.4922C20.1641 19.1484 23.5627 16.4766 29 16.4766C37.1562 16.4766 38.1758 22.4883 42.2539 23.4902C44.9729 24.1584 47.3516 23.1565 49.3906 20.4844C48.0315 25.8279 44.6326 28.5 39.1953 28.5C31.0391 28.5 30.0195 22.4883 25.9414 21.4863C23.2224 20.8184 20.8438 21.8203 18.8047 24.4922ZM8.60938 36.5156C9.96875 31.1721 13.3672 28.5 18.8047 28.5C26.9609 28.5 27.9805 34.5117 32.0586 35.5137C34.7776 36.1819 37.1562 35.1799 39.1953 32.5078C37.8362 37.8513 34.4373 40.5234 29 40.5234C20.8438 40.5234 19.8242 34.5117 15.7461 33.5098C13.0273 32.8416 10.6484 33.8435 8.60938 36.5156Z" fill="url(#paint0_linear_3_109)"/>
</g>
<defs>
<linearGradient id="paint0_linear_3_109" x1="19.5977" y1="16.4766" x2="36.6347" y2="41.5798" gradientUnits="userSpaceOnUse">
<stop stop-color="#32B1C1"/>
<stop offset="1" stop-color="#14C6B7"/>
</linearGradient>
<clipPath id="clip0_3_109">
<rect width="58" height="57" fill="white"/>
</clipPath>
</defs>
</svg>
