<svg width="60" height="60" viewBox="0 0 60 60" fill="none" xmlns="http://www.w3.org/2000/svg">
<g clip-path="url(#clip0_3_126)">
<path d="M45.9375 0H14.0625C6.296 0 0 6.296 0 14.0625V45.9375C0 53.704 6.296 60 14.0625 60H45.9375C53.704 60 60 53.704 60 45.9375V14.0625C60 6.296 53.704 0 45.9375 0Z" fill="#F4F2ED"/>
<path d="M42.416 21.191L39.2735 24.3338C44.4159 29.4762 44.4159 37.7613 39.2735 42.8086C34.1309 47.951 25.8457 47.951 20.7984 42.8086C15.6562 37.6662 15.6562 29.381 20.7984 24.3338L28.9409 16.1916L30.0837 15.0488V8.90625L17.7987 21.191C10.942 28.0477 10.942 39.0947 17.7987 45.9513C24.6553 52.808 35.7023 52.808 42.416 45.9513C49.2727 39.0469 49.2727 28.0477 42.416 21.191Z" fill="#EE4C2C"/>
<path d="M36.2738 20.4293C37.5359 20.4293 38.5591 19.406 38.5591 18.1437C38.5591 16.8813 37.5359 15.858 36.2738 15.858C35.0114 15.858 33.9881 16.8813 33.9881 18.1437C33.9881 19.406 35.0114 20.4293 36.2738 20.4293Z" fill="#EE4C2C"/>
</g>
<defs>
<clipPath id="clip0_3_126">
<rect width="60" height="60" fill="white"/>
</clipPath>
</defs>
</svg>
