<svg width="61" height="61" viewBox="0 0 61 61" fill="none" xmlns="http://www.w3.org/2000/svg">
<g clip-path="url(#clip0_2_51)">
<path d="M46.7031 0H14.2969C6.40093 0 0 6.40093 0 14.2969V46.7031C0 54.5991 6.40093 61 14.2969 61H46.7031C54.5991 61 61 54.5991 61 46.7031V14.2969C61 6.40093 54.5991 0 46.7031 0Z" fill="#764ABC"/>
<path d="M39.6926 39.4591C41.4514 39.2771 42.7855 37.7609 42.7248 35.9416C42.6642 34.1224 41.1481 32.6669 39.3288 32.6669H39.2075C37.3275 32.7275 35.872 34.3042 35.9326 36.1842C35.9933 37.094 36.3572 37.8822 36.9028 38.4281C34.841 42.4913 31.6876 45.4629 26.9572 47.9493C23.743 49.6473 20.4076 50.2538 17.0721 49.8294C14.3431 49.4655 12.2207 48.2524 10.8863 46.2513C8.94578 43.2797 8.76397 40.0656 10.4012 36.8514C11.5535 34.5467 13.3728 32.8487 14.5251 31.9997C14.2826 31.2115 13.9187 29.8771 13.7367 28.9069C4.94337 35.2747 5.85289 43.8862 8.52117 47.9493C10.5227 50.9815 14.5857 52.8615 19.0734 52.8615C20.2863 52.8615 21.4992 52.7402 22.712 52.4369C30.4747 50.9209 36.3572 46.3119 39.6926 39.4591Z" fill="white"/>
<path d="M50.366 31.9392C45.7571 26.5417 38.9649 23.5703 31.2024 23.5703H30.2322C29.6863 22.4785 28.5339 21.7508 27.2606 21.7508H27.1393C25.2592 21.8115 23.8038 23.3883 23.8643 25.2683C23.9251 27.0876 25.441 28.543 27.2606 28.543H27.3818C28.716 28.4825 29.8683 27.6335 30.3535 26.4811H31.445C36.0539 26.4811 40.4204 27.8153 44.3622 30.423C47.3944 32.4244 49.5777 35.0321 50.7906 38.1855C51.8216 40.7325 51.7609 43.219 50.6693 45.3416C48.9713 48.5558 46.121 50.3145 42.3609 50.3145C39.9352 50.3145 37.6308 49.5868 36.4177 49.0409C35.7508 49.6473 34.5379 50.6176 33.6889 51.224C36.2964 52.4369 38.9649 53.1041 41.5119 53.1041C47.3339 53.1041 51.6396 49.8899 53.2771 46.6757C55.0358 43.1584 54.9145 37.094 50.366 31.9392Z" fill="white"/>
<path d="M19.5586 40.4902C19.6194 42.3095 21.1353 43.7649 22.9548 43.7649H23.0761C24.9559 43.7041 26.4116 42.1274 26.3508 40.2474C26.2903 38.4281 24.7741 36.9727 22.9548 36.9727H22.8333C22.7123 36.9727 22.5302 36.9727 22.4092 37.0334C19.9225 32.9095 18.8917 28.4217 19.2555 23.5703C19.4981 19.9317 20.7109 16.7781 22.8336 14.1701C24.5921 11.9265 27.9883 10.8349 30.2927 10.7741C36.7211 10.6528 39.4501 18.6579 39.6319 21.8721C40.4204 22.0541 41.7545 22.4787 42.6643 22.7818C41.9366 12.9577 35.8721 7.86328 30.0501 7.86328C24.5921 7.86328 19.5586 11.8052 17.5573 17.6271C14.7677 25.3896 16.587 32.8487 19.983 38.7314C19.6799 39.1558 19.4979 39.823 19.5586 40.4902Z" fill="white"/>
</g>
<defs>
<clipPath id="clip0_2_51">
<rect width="61" height="61" fill="white"/>
</clipPath>
</defs>
</svg>
