<svg width="51" height="51" viewBox="0 0 51 51" fill="none" xmlns="http://www.w3.org/2000/svg">
<path d="M46.2347 8.01657L37.0451 3.59232C36.5262 3.3421 35.9422 3.25952 35.3742 3.35604C34.8062 3.45257 34.2823 3.7234 33.8752 4.13101L3.79313 31.5563C3.42814 31.8874 3.20966 32.35 3.18575 32.8423C3.16184 33.3346 3.33446 33.8162 3.66563 34.1812C3.70547 34.2242 3.74531 34.2656 3.78834 34.3039L6.24431 36.5351C6.56524 36.8272 6.97833 36.9977 7.41184 37.0169C7.84535 37.0361 8.2719 36.9029 8.61741 36.6403L44.8513 9.16407C45.125 8.95639 45.4512 8.82923 45.7933 8.79689C46.1353 8.76456 46.4796 8.82834 46.7873 8.98106C47.0951 9.13378 47.3541 9.36937 47.5352 9.66131C47.7163 9.95324 47.8124 10.2899 47.8125 10.6335V10.5267C47.8125 10.0022 47.6644 9.48838 47.3852 9.04432C47.1061 8.60026 46.7073 8.24401 46.2347 8.01657Z" fill="#0065A9"/>
<path d="M46.2347 42.9834L37.0451 47.4093C36.526 47.6588 35.9422 47.741 35.3744 47.6445C34.8066 47.548 34.2827 47.2776 33.8752 46.8706L3.79313 19.4438C3.42814 19.1126 3.20966 18.65 3.18575 18.1577C3.16184 17.6654 3.33446 17.1838 3.66563 16.8188C3.70547 16.7758 3.74531 16.7344 3.78834 16.6961L6.24431 14.4649C6.56556 14.1716 6.9796 14.0004 7.41418 13.9811C7.84876 13.9619 8.2763 14.0959 8.62219 14.3597L44.8513 41.8359C45.125 42.0436 45.4512 42.1708 45.7933 42.2031C46.1353 42.2354 46.4796 42.1717 46.7873 42.0189C47.0951 41.8662 47.3541 41.6306 47.5352 41.3387C47.7163 41.0468 47.8124 40.7101 47.8125 40.3665V40.4813C47.8108 41.0044 47.6619 41.5164 47.3829 41.9589C47.1039 42.4014 46.706 42.7564 46.2347 42.9834Z" fill="#007ACC"/>
<path d="M37.0451 47.4093C36.526 47.6588 35.9422 47.741 35.3744 47.6445C34.8066 47.548 34.2827 47.2776 33.8751 46.8706C34.104 47.0965 34.3945 47.2498 34.7101 47.3113C35.0257 47.3729 35.3525 47.3399 35.6494 47.2165C35.9464 47.0931 36.2003 46.8848 36.3794 46.6178C36.5585 46.3507 36.6548 46.0367 36.6562 45.7151V5.28488C36.6565 4.96181 36.5609 4.64593 36.3815 4.37725C36.2021 4.10857 35.947 3.89919 35.6484 3.77562C35.3499 3.65205 35.0215 3.61986 34.7047 3.68313C34.3878 3.74639 34.0969 3.90227 33.8688 4.131C34.276 3.72355 34.7998 3.4527 35.3677 3.35591C35.9356 3.25912 36.5195 3.34117 37.0387 3.59072L46.2267 8.0086C46.7008 8.23491 47.1013 8.59067 47.3819 9.03482C47.6625 9.47896 47.8117 9.9934 47.8125 10.5188V40.4813C47.8126 41.0062 47.6644 41.5205 47.385 41.9649C47.1056 42.4093 46.7063 42.7657 46.2331 42.993L37.0451 47.4093Z" fill="#1F9CF0"/>
</svg>
