<svg width="43" height="43" viewBox="0 0 43 43" fill="none" xmlns="http://www.w3.org/2000/svg">
<path d="M7.93081 36.5513L4.91275 2.6875H38.0872L35.0652 36.546L21.4798 40.3125L7.93081 36.5513Z" fill="#1572B6"/>
<path d="M21.5 37.4342L32.4784 34.3906L35.0611 5.45697H21.5V37.4342Z" fill="#33A9DC"/>
<path d="M21.5 17.7254H26.9959L27.3749 13.4724H21.5V9.31891H31.9141L31.8146 10.4329L30.7947 21.8789H21.5V17.7254Z" fill="white"/>
<path d="M21.5255 28.5117L21.5067 28.5171L16.8815 27.2674L16.5859 23.955H12.4163L12.9981 30.4763L21.5054 32.8386L21.5255 32.8332V28.5117Z" fill="#EBEBEB"/>
<path d="M26.6425 21.7029L26.1426 27.2647L21.5107 28.5144V32.8359L30.0247 30.4763L30.0879 29.7748L30.8095 21.7029H26.6425Z" fill="white"/>
<path d="M21.5148 9.31891V13.4724H11.4824L11.399 12.5385L11.2096 10.4329L11.1101 9.31891H21.5148ZM21.5 17.7254V21.8789H16.9326L16.8493 20.945L16.6612 18.8394L16.5617 17.7254H21.5Z" fill="#EBEBEB"/>
</svg>
