<svg width="51" height="51" viewBox="0 0 51 51" fill="none" xmlns="http://www.w3.org/2000/svg">
<path d="M9.40632 43.3516L5.82516 3.1875H45.1749L41.5889 43.3452L25.4761 47.8125L9.40632 43.3516Z" fill="#E44F26"/>
<path d="M25.5 44.3987L38.5209 40.7888L41.5841 6.47221H25.5V44.3987Z" fill="#F1662A"/>
<path d="M25.5 21.3674H18.9816L18.5321 16.3232H25.5V11.3969H13.1484L13.2664 12.7197L14.476 26.2937H25.5V21.3674ZM25.5 34.1604L25.4777 34.1668L19.992 32.6862L19.6414 28.7576H14.696L15.3861 36.4905L25.4777 39.2923L25.5 39.2859V34.1604Z" fill="#EBEBEB"/>
<path d="M25.4825 21.3674V26.2937H31.5483L30.9777 32.683L25.4825 34.1652V39.2907L35.5821 36.4905L35.6554 35.6586L36.8125 22.6902L36.9336 21.3674H25.4825ZM25.4825 11.3969V16.3232H37.3814L37.4802 15.2171L37.705 12.7197L37.8229 11.3969H25.4825Z" fill="white"/>
</svg>
