<svg width="56" height="56" viewBox="0 0 56 56" fill="none" xmlns="http://www.w3.org/2000/svg">
<path d="M28 32.3295C30.4162 32.3295 32.375 30.3707 32.375 27.9545C32.375 25.5383 30.4162 23.5795 28 23.5795C25.5838 23.5795 23.625 25.5383 23.625 27.9545C23.625 30.3707 25.5838 32.3295 28 32.3295Z" fill="#00D8FF"/>
<path d="M28 37.9855C22.7415 38.1127 17.4961 37.4039 12.46 35.8855C10.1336 35.148 7.96379 33.9863 6.06025 32.459C5.33388 31.9373 4.72898 31.2645 4.28705 30.487C3.84512 29.7095 3.57663 28.8456 3.5 27.9545C3.5 25.0618 6.678 22.2268 12.0015 20.3718C17.1723 18.7281 22.5749 17.9314 28 18.0128C33.3527 17.938 38.6829 18.7202 43.7885 20.3298C46.029 21.044 48.1252 22.1496 49.98 23.5953C50.694 24.0927 51.2898 24.741 51.7253 25.4944C52.1608 26.2477 52.4252 27.0876 52.5 27.9545C52.5 30.961 48.9475 34.0078 43.225 35.9013C38.2864 37.3702 33.1517 38.0731 28 37.9855ZM28 20.1058C22.8097 20.0364 17.6414 20.7937 12.6892 22.3493C7.78925 24.059 5.593 26.397 5.593 27.9493C5.593 29.5733 7.95375 32.1265 13.1372 33.8993C17.9551 35.3445 22.9716 36.0173 28 35.8925C32.9287 35.9806 37.8419 35.3137 42.5688 33.915C47.95 32.1318 50.4 29.575 50.4 27.9545C50.3117 27.3984 50.109 26.8666 49.8048 26.3928C49.5006 25.919 49.1014 25.5135 48.6325 25.2018C46.9731 23.9193 45.1005 22.9394 43.1007 22.3073C38.2165 20.7738 33.1187 20.0306 28 20.1058Z" fill="#00D8FF"/>
<path d="M18.06 49.7753C17.2436 49.794 16.4369 49.5959 15.722 49.2012C13.216 47.7557 12.348 43.5872 13.3997 38.0485C14.5594 32.7479 16.5687 27.6698 19.3497 23.0107C21.9585 18.3367 25.2983 14.1101 29.2425 10.4912C30.9805 8.90698 32.9855 7.6432 35.1645 6.7585C35.9526 6.38914 36.8124 6.19768 37.6827 6.19768C38.5531 6.19768 39.4129 6.38914 40.201 6.7585C42.8067 8.26 43.6695 12.859 42.4532 18.7617C41.2578 23.7747 39.3007 28.5748 36.6502 32.9945C34.1333 37.6134 30.8986 41.8032 27.0672 45.4072C25.2661 47.0536 23.1758 48.3524 20.902 49.238C19.9917 49.5759 19.0308 49.7575 18.06 49.7753ZM21.1627 24.0502C18.5099 28.5116 16.5842 33.3667 15.4577 38.4335C14.49 43.5347 15.4192 46.6025 16.7702 47.383C18.1702 48.1932 21.5687 47.425 25.6952 43.82C29.3528 40.3672 32.4402 36.3566 34.8425 31.9375C37.3816 27.7122 39.259 23.123 40.4092 18.3295C41.5537 12.7732 40.565 9.37125 39.1615 8.56275C38.6355 8.3612 38.0733 8.27097 37.5107 8.29778C36.948 8.32459 36.397 8.46785 35.8925 8.7185C33.9529 9.51886 32.1698 10.6551 30.625 12.075C26.8567 15.5414 23.6665 19.5876 21.175 24.0607L21.1627 24.0502Z" fill="#00D8FF"/>
<path d="M37.9348 49.798C35.5635 49.798 32.5518 48.363 29.4158 45.6663C25.4025 42.0145 22.0062 37.7377 19.3585 33.0015C16.6123 28.4066 14.6189 23.402 13.454 18.1773C12.9488 15.8786 12.8552 13.5086 13.1775 11.1773C13.252 10.3124 13.5154 9.47445 13.949 8.72246C14.3826 7.97047 14.9759 7.32276 15.687 6.825C18.2893 5.31825 22.7045 6.867 27.2108 10.8675C30.9568 14.4063 34.1379 18.4987 36.6433 23.002C39.3878 27.4896 41.402 32.3847 42.6108 37.5043C43.1377 39.8872 43.219 42.3472 42.8505 44.7598C42.7628 45.6495 42.4838 46.5097 42.0325 47.2815C41.5812 48.0532 40.9684 48.7183 40.236 49.231C39.5328 49.6208 38.7385 49.8165 37.9348 49.798ZM21.1698 31.948C23.7098 36.4743 26.954 40.5674 30.7808 44.0738C34.7165 47.46 37.8385 48.188 39.1808 47.3987C40.5808 46.585 41.6133 43.2635 40.5493 37.8892C39.3835 33.0014 37.4516 28.3288 34.825 24.045C32.4342 19.735 29.3978 15.8163 25.8213 12.425C21.5793 8.659 18.1388 7.81725 16.737 8.62925C16.3001 8.98429 15.9416 9.42607 15.684 9.92668C15.4265 10.4273 15.2756 10.9759 15.2408 11.5378C14.9625 13.6169 15.0532 15.7288 15.5085 17.7765C16.629 22.773 18.5408 27.5583 21.1715 31.9515L21.1698 31.948Z" fill="#00D8FF"/>
</svg>
