<svg width="46" height="45" viewBox="0 0 46 45" fill="none" xmlns="http://www.w3.org/2000/svg">
<path d="M41.239 2.8125H4.761C3.71939 2.8125 2.875 3.63853 2.875 4.6575V40.3425C2.875 41.3615 3.71939 42.1875 4.761 42.1875H41.239C42.2806 42.1875 43.125 41.3615 43.125 40.3425V4.6575C43.125 3.63853 42.2806 2.8125 41.239 2.8125Z" fill="#3178C6"/>
<path fill-rule="evenodd" clip-rule="evenodd" d="M26.2272 33.4111V37.7255C27.0285 38.1124 27.8825 38.3847 28.7629 38.5341C29.7804 38.7178 30.8132 38.8082 31.8478 38.8041C32.8562 38.8088 33.8623 38.7093 34.8493 38.5073C35.7355 38.3322 36.581 37.9985 37.3434 37.523C38.0511 37.0761 38.6344 36.4643 39.0411 35.7427C39.7693 34.2483 39.8654 32.5331 39.3084 30.9698C39.0734 30.3852 38.7232 29.8515 38.2777 29.3991C37.7996 28.9179 37.2565 28.503 36.6634 28.1658C35.9807 27.7746 35.2713 27.4297 34.5402 27.1336C33.9652 26.9002 33.4477 26.6733 32.9877 26.453C32.5792 26.2616 32.1882 26.0362 31.8191 25.7794C31.53 25.5811 31.2789 25.3345 31.0773 25.0509C30.9032 24.7935 30.8125 24.4906 30.8171 24.1819C30.8133 23.8978 30.8942 23.6187 31.05 23.3789C31.2192 23.1279 31.4449 22.9182 31.7098 22.7658C32.0336 22.5793 32.386 22.4449 32.7534 22.3678C33.2045 22.2698 33.6656 22.2226 34.1277 22.2272C34.5163 22.2285 34.9044 22.2557 35.2892 22.3088C35.7048 22.3637 36.1159 22.4469 36.5197 22.5577C36.9304 22.669 37.3321 22.81 37.7214 22.9795C38.0993 23.1443 38.4607 23.343 38.801 23.573V19.5469C38.0925 19.2846 37.3577 19.0961 36.6088 18.9844C35.7045 18.8556 34.7914 18.795 33.8776 18.803C32.8787 18.7977 31.8827 18.9086 30.9106 19.1334C30.0319 19.3299 29.1964 19.679 28.4438 20.1642C27.7447 20.6198 27.1675 21.2327 26.7605 21.9516C26.3292 22.7498 26.1158 23.6435 26.1409 24.5461C26.1091 25.7397 26.511 26.9057 27.2751 27.8367C28.2126 28.869 29.3948 29.6605 30.7179 30.1416C31.3217 30.3853 31.8847 30.6239 32.407 30.8573C32.8782 31.0625 33.3312 31.3057 33.7611 31.5844C34.1079 31.8051 34.4125 32.0835 34.661 32.407C34.8795 32.7005 34.9955 33.0551 34.9916 33.4181C34.9936 33.6902 34.9222 33.9579 34.7846 34.1944C34.6318 34.4485 34.4169 34.6615 34.1593 34.8145C33.837 35.0068 33.4843 35.1455 33.1157 35.2252C32.6355 35.3302 32.1443 35.3797 31.6523 35.3728C30.6867 35.3711 29.7289 35.2045 28.8219 34.8806C27.8743 34.5461 26.9955 34.0484 26.2272 33.4111ZM18.8183 22.6702H24.5683V19.1166H8.53587V22.6702H14.26V38.4961H18.8183V22.6702Z" fill="white"/>
</svg>
