<svg width="58" height="58" viewBox="0 0 58 58" fill="none" xmlns="http://www.w3.org/2000/svg">
<path d="M49.4812 9.0625H10.6684L3.625 16.2364V47.125H47.3316L54.375 39.9511V9.0625H49.4812ZM30.6312 41.8144L27.318 43.3586L24.4688 38.6624C23.827 38.8162 23.1671 38.8808 22.5076 38.8546C19.1636 38.8546 16.8472 37.9483 15.5295 36.1539C14.0183 33.5824 13.3337 30.6086 13.5684 27.6352C13.3533 24.617 14.0478 21.6037 15.5621 18.9841C16.3971 17.9763 17.4683 17.1906 18.6804 16.6969C19.8926 16.2033 21.2079 16.0171 22.5094 16.1548C25.8227 16.1548 28.1046 17.0882 29.4568 18.9533C30.9711 21.5729 31.6655 24.5862 31.4505 27.6044C31.5149 29.7133 31.2383 31.8187 30.6312 33.8394C30.1602 35.3064 29.2227 36.5793 27.9614 37.4644L30.6312 41.8144ZM41.2307 38.7875C40.5241 38.8728 39.8074 38.8049 39.1294 38.5885C38.4513 38.3721 37.8278 38.0122 37.3012 37.5333C36.4447 36.1144 36.0755 34.4544 36.25 32.8063V25.375H34.4375V21.75H36.25V16.3125H39.875V21.75H43.5V25.375H39.875V32.4437C39.8135 33.3233 39.9167 34.2067 40.1795 35.0483C40.3825 35.467 40.8918 35.6917 41.7382 35.6917L44.5168 35.5957L44.6854 38.3942C43.5456 38.6135 42.3907 38.7449 41.2307 38.7875ZM22.504 19.2379C21.6952 19.1489 20.8777 19.2886 20.1443 19.641C19.4109 19.9935 18.7911 20.5445 18.3552 21.2316C17.4969 23.239 17.1243 25.4205 17.2677 27.5989C17.1073 29.7365 17.481 31.8804 18.3552 33.8376C18.8151 34.5008 19.4476 35.0255 20.1844 35.3549C20.9211 35.6843 21.7339 35.8058 22.5348 35.7063C23.3277 35.8085 24.1335 35.6917 24.8648 35.3687C25.5961 35.0457 26.2251 34.5287 26.6836 33.8738C27.5341 31.9099 27.8984 29.7699 27.7457 27.6352C27.8919 25.446 27.5193 23.2533 26.6583 21.2352C26.2224 20.5466 25.6019 19.9942 24.8674 19.6411C24.1329 19.2879 23.314 19.1482 22.504 19.2379Z" fill="#FFA351"/>
</svg>
