<svg width="58" height="58" viewBox="0 0 58 58" fill="none" xmlns="http://www.w3.org/2000/svg">
<path d="M25.6197 7.25H32.8062V40.1813C29.7386 40.8109 26.6161 41.1357 23.4846 41.151C14.7084 41.1419 10.1409 37.2215 10.1409 29.6924C10.1409 22.4424 14.9857 17.7299 22.4949 17.7299C23.5481 17.7093 24.5992 17.8313 25.6197 18.0924V7.25ZM25.6197 23.8199C24.8384 23.5622 24.0189 23.4396 23.1964 23.4574C19.5714 23.4574 17.4634 25.6741 17.4634 29.5583C17.4634 33.3409 19.4699 35.4289 23.1511 35.4289C23.9772 35.4287 24.8023 35.3682 25.6197 35.2477V23.8289V23.8199Z" fill="#44B78B"/>
<path d="M44.225 18.2319V34.7257C44.225 40.4042 43.7991 43.1339 42.5521 45.4883C41.2794 47.8823 39.1984 49.7468 36.6796 50.75L30.0132 47.6089C32.435 46.7796 34.4634 45.0819 35.7062 42.8439C36.7321 40.8121 37.0566 38.4576 37.0566 32.2643V18.2319H44.225ZM37.0493 7.28625H44.2341V14.587H37.0493V7.28625Z" fill="#44B78B"/>
</svg>
