<svg width="68" height="68" viewBox="0 0 68 68" fill="none" xmlns="http://www.w3.org/2000/svg">
<path d="M5.66663 51.323V16.677C5.66663 11.8547 5.66663 9.44348 7.20229 8.65298C8.74079 7.85965 10.7015 9.26498 14.6256 12.0671L19.108 15.2688C20.8533 16.5155 21.726 17.1388 22.1963 18.0511C22.6666 18.9663 22.6666 20.0401 22.6666 22.185V45.815C22.6666 47.9598 22.6666 49.0336 22.1963 49.9488C21.726 50.864 20.8533 51.4873 19.108 52.734L14.6256 55.9357C10.7015 58.735 8.74079 60.1375 7.20229 59.347C5.66663 58.5536 5.66663 56.1453 5.66663 51.323ZM62.3333 51.323V16.677C62.3333 11.8547 62.3333 9.44348 60.7976 8.65298C59.2591 7.85965 57.2985 9.26498 53.3743 12.0671L48.892 15.2688C47.1466 16.5155 46.274 17.1388 45.8036 18.0511C45.3333 18.9663 45.3333 20.0401 45.3333 22.185V45.815C45.3333 47.9598 45.3333 49.0336 45.8036 49.9488C46.274 50.864 47.1466 51.4873 48.892 52.734L53.3715 55.9357C57.2985 58.735 59.2591 60.1375 60.7948 59.347C62.3333 58.5536 62.3333 56.1453 62.3333 51.323Z" fill="white"/>
<path fill-rule="evenodd" clip-rule="evenodd" d="M34 3.54166C34.5636 3.54166 35.1041 3.76554 35.5026 4.16405C35.9011 4.56257 36.125 5.10307 36.125 5.66666V17C36.125 17.5636 35.9011 18.1041 35.5026 18.5026C35.1041 18.9011 34.5636 19.125 34 19.125C33.4364 19.125 32.8959 18.9011 32.4974 18.5026C32.0989 18.1041 31.875 17.5636 31.875 17V5.66666C31.875 5.10307 32.0989 4.56257 32.4974 4.16405C32.8959 3.76554 33.4364 3.54166 34 3.54166ZM34 26.2083C34.5636 26.2083 35.1041 26.4322 35.5026 26.8307C35.9011 27.2292 36.125 27.7697 36.125 28.3333V39.6667C36.125 40.2302 35.9011 40.7707 35.5026 41.1693C35.1041 41.5678 34.5636 41.7917 34 41.7917C33.4364 41.7917 32.8959 41.5678 32.4974 41.1693C32.0989 40.7707 31.875 40.2302 31.875 39.6667V28.3333C31.875 27.7697 32.0989 27.2292 32.4974 26.8307C32.8959 26.4322 33.4364 26.2083 34 26.2083ZM34 48.875C34.5636 48.875 35.1041 49.0989 35.5026 49.4974C35.9011 49.8959 36.125 50.4364 36.125 51V62.3333C36.125 62.8969 35.9011 63.4374 35.5026 63.8359C35.1041 64.2344 34.5636 64.4583 34 64.4583C33.4364 64.4583 32.8959 64.2344 32.4974 63.8359C32.0989 63.4374 31.875 62.8969 31.875 62.3333V51C31.875 50.4364 32.0989 49.8959 32.4974 49.4974C32.8959 49.0989 33.4364 48.875 34 48.875Z" fill="white"/>
</svg>
